# Blender v2.77 (sub 0) OBJ File: ''
# www.blender.org
mtllib GeneralStore_Yarn.mtl
o Model_GeneralStore_Yarn
v 0.083875 0.105369 -0.073447
v 0.135637 0.048990 -0.052294
v 0.133429 0.072826 -0.020619
v 0.151055 -0.020517 -0.017129
v 0.147231 0.020769 0.037734
v 0.125998 -0.084526 0.022626
v 0.121582 -0.036853 0.085976
v 0.067180 -0.125886 0.056318
v 0.063355 -0.084600 0.111181
v -0.009640 -0.133515 0.074920
v -0.011848 -0.109679 0.106595
v -0.083876 -0.105369 0.073447
v -0.024312 -0.146028 0.040214
v -0.083876 -0.105369 0.073447
v 0.041766 -0.147558 -0.003795
v 0.096653 -0.109550 -0.046787
v 0.125642 -0.042189 -0.077242
v -0.051934 -0.143863 0.011776
v -0.083876 -0.105369 0.073447
v -0.006076 -0.143809 -0.053051
v 0.120965 0.036477 -0.087000
v 0.083875 0.105369 -0.073447
v 0.041410 -0.105221 -0.103663
v -0.085103 -0.127601 -0.002774
v -0.083876 -0.105369 0.073447
v 0.077800 -0.038439 -0.126498
v -0.063527 -0.115643 -0.078252
v 0.093343 0.038642 -0.115438
v 0.083875 0.105369 -0.073447
v -0.024930 -0.072698 -0.132762
v -0.114933 -0.101600 0.000463
v -0.083876 -0.105369 0.073447
v 0.020348 -0.010273 -0.151699
v -0.115194 -0.070607 -0.072645
v 0.060173 0.054904 -0.129988
v 0.083875 0.105369 -0.073447
v -0.084589 -0.020695 -0.126289
v -0.133431 -0.072826 0.020619
v -0.083876 -0.105369 0.073447
v -0.031319 0.034762 -0.146093
v -0.147232 -0.020769 -0.037734
v 0.030343 0.080905 -0.126751
v 0.083875 0.105369 -0.073447
v -0.121583 0.036853 -0.085976
v -0.135639 -0.048990 0.052294
v -0.083876 -0.105369 0.073447
v -0.063357 0.084600 -0.111181
v -0.151057 0.020517 0.017129
v 0.011846 0.109679 -0.106595
v 0.083875 0.105369 -0.073447
v -0.126000 0.084526 -0.022626
v -0.120966 -0.036477 0.087001
v -0.083876 -0.105369 0.073447
v -0.067181 0.125886 -0.056318
v -0.125643 0.042189 0.077242
v 0.009638 0.133516 -0.074920
v 0.083875 0.105369 -0.073447
v -0.096655 0.109551 0.046787
v -0.093344 -0.038642 0.115439
v -0.083876 -0.105369 0.073447
v -0.041768 0.147558 0.003795
v -0.077801 0.038440 0.126498
v 0.024311 0.146028 -0.040214
v 0.083875 0.105369 -0.073447
v -0.041412 0.105221 0.103663
v -0.060175 -0.054904 0.129988
v -0.083876 -0.105369 0.073447
v 0.006074 0.143809 0.053051
v -0.020350 0.010274 0.151699
v 0.051932 0.143863 -0.011776
v 0.083875 0.105369 -0.073447
v 0.024928 0.072698 0.132763
v -0.030345 -0.080905 0.126752
v -0.083876 -0.105369 0.073447
v 0.063526 0.115643 0.078252
v 0.031317 -0.034762 0.146093
v -0.011848 -0.109679 0.106595
v -0.083876 -0.105369 0.073447
v 0.063355 -0.084600 0.111181
v 0.084588 0.020695 0.126289
v 0.121582 -0.036853 0.085976
v 0.115193 0.070607 0.072646
v 0.147231 0.020769 0.037734
v 0.085102 0.127602 0.002774
v 0.083875 0.105369 -0.073447
v 0.114932 0.101600 -0.000463
v 0.083875 0.105369 -0.073447
v 0.133429 0.072826 -0.020619
v 0.083875 0.105369 -0.073447
vt 0.4948 0.8975
vt 0.5329 0.8975
vt 0.4948 0.9738
vt 0.5329 0.8213
vt 0.4948 0.8213
vt 0.5329 0.7450
vt 0.4948 0.7450
vt 0.5329 0.6687
vt 0.4948 0.6687
vt 0.5329 0.5925
vt 0.4948 0.5925
vt 0.4948 0.5162
vt 0.5710 0.5925
vt 0.5329 0.5162
vt 0.5710 0.6687
vt 0.5710 0.7450
vt 0.5710 0.8213
vt 0.6092 0.5925
vt 0.5710 0.5162
vt 0.6092 0.6687
vt 0.5710 0.8975
vt 0.5329 0.9738
vt 0.6092 0.7450
vt 0.6473 0.5925
vt 0.6092 0.5162
vt 0.6092 0.8213
vt 0.6473 0.6687
vt 0.6092 0.8975
vt 0.5710 0.9738
vt 0.6473 0.7450
vt 0.6855 0.5925
vt 0.6473 0.5162
vt 0.6473 0.8213
vt 0.6855 0.6687
vt 0.6473 0.8975
vt 0.6092 0.9738
vt 0.6855 0.7450
vt 0.7236 0.5925
vt 0.6855 0.5162
vt 0.6855 0.8213
vt 0.7236 0.6687
vt 0.6855 0.8975
vt 0.6473 0.9738
vt 0.7236 0.7450
vt 0.7617 0.5925
vt 0.7236 0.5162
vt 0.7236 0.8213
vt 0.7617 0.6687
vt 0.7236 0.8975
vt 0.6855 0.9738
vt 0.7617 0.7450
vt 0.7999 0.5925
vt 0.7617 0.5162
vt 0.7617 0.8213
vt 0.7999 0.6687
vt 0.7617 0.8975
vt 0.7236 0.9738
vt 0.7999 0.7450
vt 0.8380 0.5925
vt 0.7999 0.5162
vt 0.7999 0.8213
vt 0.8380 0.6687
vt 0.7999 0.8975
vt 0.7617 0.9738
vt 0.8380 0.7450
vt 0.8761 0.5925
vt 0.8380 0.5162
vt 0.8380 0.8213
vt 0.8761 0.6687
vt 0.8380 0.8975
vt 0.7999 0.9738
vt 0.8761 0.7450
vt 0.9143 0.5925
vt 0.8761 0.5162
vt 0.8761 0.8213
vt 0.9143 0.6687
vt 0.9524 0.5925
vt 0.9143 0.5162
vt 0.9524 0.6687
vt 0.9143 0.7450
vt 0.9524 0.7450
vt 0.9143 0.8213
vt 0.9524 0.8213
vt 0.8761 0.8975
vt 0.8380 0.9738
vt 0.9143 0.8975
vt 0.8761 0.9738
vt 0.9524 0.8975
vt 0.9143 0.9738
vn 0.8841 0.4546 -0.1082
vn 0.8994 0.2896 -0.3274
vn 0.5468 0.6869 -0.4788
vn 0.9832 -0.1514 -0.1017
vn 0.9580 0.1209 0.2600
vn 0.8214 -0.5510 0.1475
vn 0.7926 -0.2403 0.5605
vn 0.4558 -0.8140 0.3601
vn 0.4305 -0.5418 0.7219
vn -0.0273 -0.8746 0.4840
vn -0.0426 -0.7096 0.7033
vn -0.5468 -0.6869 0.4788
vn -0.1288 -0.9612 0.2438
vn 0.2882 -0.9569 -0.0362
vn 0.6301 -0.7141 -0.3050
vn 0.8157 -0.2943 -0.4981
vn -0.3200 -0.9462 0.0470
vn -0.0273 -0.9322 -0.3610
vn 0.7979 0.2030 -0.5677
vn 0.5467 0.6869 -0.4788
vn 0.2699 -0.6859 -0.6758
vn -0.5496 -0.8337 -0.0537
vn -0.5467 -0.6869 0.4788
vn 0.5002 -0.2695 -0.8229
vn -0.4061 -0.7464 -0.5272
vn 0.6067 0.2179 -0.7645
vn -0.1625 -0.4739 -0.8655
vn -0.7561 -0.6537 -0.0313
vn 0.1214 -0.0838 -0.9891
vn -0.7468 -0.4495 -0.4902
vn 0.3771 0.3305 -0.8652
vn -0.5514 -0.1349 -0.8233
vn -0.8841 -0.4545 0.1082
vn -0.2193 0.2131 -0.9521
vn -0.9580 -0.1209 -0.2600
vn 0.1706 0.5105 -0.8428
vn -0.7926 0.2402 -0.5605
vn -0.8994 -0.2896 0.3274
vn -0.4306 0.5418 -0.7219
vn -0.9832 0.1514 0.1017
vn 0.0426 0.7096 -0.7033
vn -0.8214 0.5510 -0.1475
vn -0.7979 -0.2030 0.5677
vn -0.4558 0.8140 -0.3601
vn -0.8157 0.2943 0.4981
vn 0.0273 0.8746 -0.4840
vn -0.6301 0.7141 0.3050
vn -0.6067 -0.2179 0.7645
vn -0.2882 0.9569 0.0362
vn -0.5002 0.2695 0.8229
vn 0.1288 0.9612 -0.2438
vn -0.2699 0.6859 0.6758
vn -0.3771 -0.3305 0.8652
vn 0.0273 0.9322 0.3610
vn -0.1214 0.0838 0.9891
vn 0.3200 0.9462 -0.0470
vn 0.1625 0.4739 0.8655
vn -0.1706 -0.5105 0.8428
vn 0.4061 0.7464 0.5272
vn 0.2193 -0.2131 0.9521
vn 0.5514 0.1349 0.8233
vn 0.7926 -0.2402 0.5605
vn 0.7468 0.4495 0.4902
vn 0.5496 0.8337 0.0537
vn 0.7561 0.6537 0.0313
vn 0.8841 0.4545 -0.1082
usemtl Mat_GeneralStore_YarnBlue
s 1
f 3/1/1 2/2/2 1/3/3
f 4/4/4 2/2/2 3/1/1
f 5/5/5 4/4/4 3/1/1
f 6/6/6 4/4/4 5/5/5
f 7/7/7 6/6/6 5/5/5
f 8/8/8 6/6/6 7/7/7
f 9/9/9 8/8/8 7/7/7
f 10/10/10 8/8/8 9/9/9
f 11/11/11 10/10/10 9/9/9
f 10/10/10 11/11/11 12/12/12
f 10/10/10 13/13/13 8/8/8
f 13/13/13 10/10/10 14/14/12
f 8/8/8 15/15/14 6/6/6
f 13/13/13 15/15/14 8/8/8
f 6/6/6 16/16/15 4/4/4
f 15/15/14 16/16/15 6/6/6
f 4/4/4 17/17/16 2/2/2
f 16/16/15 17/17/16 4/4/4
f 13/13/13 18/18/17 15/15/14
f 18/18/17 13/13/13 19/19/12
f 15/15/14 20/20/18 16/16/15
f 18/18/17 20/20/18 15/15/14
f 17/17/16 21/21/19 2/2/2
f 2/2/2 21/21/19 22/22/20
f 16/16/15 23/23/21 17/17/16
f 20/20/18 23/23/21 16/16/15
f 18/18/17 24/24/22 20/20/18
f 24/24/22 18/18/17 25/25/23
f 17/17/16 26/26/24 21/21/19
f 23/23/21 26/26/24 17/17/16
f 20/20/18 27/27/25 23/23/21
f 24/24/22 27/27/25 20/20/18
f 26/26/24 28/28/26 21/21/19
f 21/21/19 28/28/26 29/29/3
f 23/23/21 30/30/27 26/26/24
f 27/27/25 30/30/27 23/23/21
f 24/24/22 31/31/28 27/27/25
f 31/31/28 24/24/22 32/32/12
f 26/26/24 33/33/29 28/28/26
f 30/30/27 33/33/29 26/26/24
f 27/27/25 34/34/30 30/30/27
f 31/31/28 34/34/30 27/27/25
f 33/33/29 35/35/31 28/28/26
f 28/28/26 35/35/31 36/36/20
f 30/30/27 37/37/32 33/33/29
f 34/34/30 37/37/32 30/30/27
f 31/31/28 38/38/33 34/34/30
f 38/38/33 31/31/28 39/39/12
f 33/33/29 40/40/34 35/35/31
f 37/37/32 40/40/34 33/33/29
f 34/34/30 41/41/35 37/37/32
f 38/38/33 41/41/35 34/34/30
f 40/40/34 42/42/36 35/35/31
f 35/35/31 42/42/36 43/43/3
f 37/37/32 44/44/37 40/40/34
f 41/41/35 44/44/37 37/37/32
f 38/38/33 45/45/38 41/41/35
f 45/45/38 38/38/33 46/46/12
f 40/40/34 47/47/39 42/42/36
f 44/44/37 47/47/39 40/40/34
f 41/41/35 48/48/40 44/44/37
f 45/45/38 48/48/40 41/41/35
f 47/47/39 49/49/41 42/42/36
f 42/42/36 49/49/41 50/50/3
f 44/44/37 51/51/42 47/47/39
f 48/48/40 51/51/42 44/44/37
f 45/45/38 52/52/43 48/48/40
f 52/52/43 45/45/38 53/53/12
f 47/47/39 54/54/44 49/49/41
f 51/51/42 54/54/44 47/47/39
f 48/48/40 55/55/45 51/51/42
f 52/52/43 55/55/45 48/48/40
f 54/54/44 56/56/46 49/49/41
f 49/49/41 56/56/46 57/57/3
f 51/51/42 58/58/47 54/54/44
f 55/55/45 58/58/47 51/51/42
f 52/52/43 59/59/48 55/55/45
f 59/59/48 52/52/43 60/60/23
f 54/54/44 61/61/49 56/56/46
f 58/58/47 61/61/49 54/54/44
f 55/55/45 62/62/50 58/58/47
f 59/59/48 62/62/50 55/55/45
f 61/61/49 63/63/51 56/56/46
f 56/56/46 63/63/51 64/64/3
f 58/58/47 65/65/52 61/61/49
f 62/62/50 65/65/52 58/58/47
f 59/59/48 66/66/53 62/62/50
f 66/66/53 59/59/48 67/67/23
f 61/61/49 68/68/54 63/63/51
f 65/65/52 68/68/54 61/61/49
f 62/62/50 69/69/55 65/65/52
f 66/66/53 69/69/55 62/62/50
f 68/68/54 70/70/56 63/63/51
f 63/63/51 70/70/56 71/71/3
f 65/65/52 72/72/57 68/68/54
f 69/69/55 72/72/57 65/65/52
f 66/66/53 73/73/58 69/69/55
f 73/73/58 66/66/53 74/74/12
f 68/68/54 75/75/59 70/70/56
f 72/72/57 75/75/59 68/68/54
f 69/69/55 76/76/60 72/72/57
f 73/73/58 76/76/60 69/69/55
f 73/73/58 77/77/11 76/76/60
f 77/77/11 73/73/58 78/78/12
f 77/77/11 79/79/9 76/76/60
f 76/76/60 80/80/61 72/72/57
f 76/76/60 79/79/9 80/80/61
f 72/72/57 80/80/61 75/75/59
f 79/79/9 81/81/62 80/80/61
f 80/80/61 81/81/62 82/82/63
f 80/80/61 82/82/63 75/75/59
f 81/81/62 83/83/5 82/82/63
f 75/75/59 84/84/64 70/70/56
f 75/75/59 82/82/63 84/84/64
f 70/70/56 84/84/64 85/85/20
f 82/82/63 83/83/5 86/86/65
f 82/82/63 86/86/65 84/84/64
f 84/84/64 86/86/65 87/87/3
f 83/83/5 88/88/66 86/86/65
f 86/86/65 88/88/66 89/89/3
