# 3ds Max Wavefront OBJ Exporter v0.97b - (c)2007 guruware
# File Created: 05.07.2020 22:03:06

mtllib AA_Kitchen_CounterC_St.mtl

#
# object AA_Kitchen_CounterC_St
#

v  107.9925 62.0000 -63.0000
v  107.9925 62.0000 63.0000
v  106.9925 61.0000 63.0000
v  106.9925 61.0000 -63.0000
v  115.9925 83.0000 -72.0000
v  -115.9925 83.0000 -72.0000
v  115.9925 83.0000 72.0000
v  -115.9925 83.0000 72.0000
v  -116.9925 72.0000 -72.0000
v  -116.9925 82.0000 72.0000
v  -116.9925 82.0000 -72.0000
v  -116.9925 72.0000 72.0000
v  -115.9925 72.0000 73.0000
v  -115.9925 82.0000 73.0000
v  -115.9925 82.0000 -73.0000
v  -115.9925 72.0000 -73.0000
v  115.9925 82.0000 73.0000
v  115.9925 72.0000 73.0000
v  115.9925 82.0000 -73.0000
v  115.9925 72.0000 -73.0000
v  116.9925 82.0000 72.0000
v  116.9925 72.0000 72.0000
v  116.9925 72.0000 -72.0000
v  116.9925 82.0000 -72.0000
v  -107.9925 71.0000 -63.0000
v  -107.9925 62.0000 63.0000
v  -107.9925 71.0000 63.0000
v  -107.9925 62.0000 -63.0000
v  114.9925 71.0000 72.0000
v  115.9925 71.0000 71.0000
v  115.9925 71.0000 -71.0000
v  107.9925 71.0000 -63.0000
v  107.9925 71.0000 63.0000
v  106.9925 71.0000 64.0000
v  106.9925 17.0000 63.0000
v  106.9925 16.0000 64.0000
v  107.9925 16.0000 63.0000
v  -106.9925 17.0000 63.0000
v  -107.9925 16.0000 63.0000
v  -106.9925 16.0000 64.0000
v  -106.9925 17.0000 -63.0000
v  106.9925 17.0000 -63.0000
v  107.9925 16.0000 -63.0000
v  106.9925 16.0000 -64.0000
v  -106.9925 16.0000 -64.0000
v  -107.9925 16.0000 -63.0000
v  -106.9925 61.0000 -63.0000
v  -106.9925 61.0000 63.0000
v  106.9925 9.0000 64.0000
v  -106.9925 9.0000 64.0000
v  106.9925 8.0000 63.0000
v  -106.9925 8.0000 63.0000
v  106.9925 9.0000 -64.0000
v  -106.9925 8.0000 -63.0000
v  -106.9925 9.0000 -64.0000
v  106.9925 8.0000 -63.0000
v  -106.9925 71.0000 -64.0000
v  114.9925 71.0000 -72.0000
v  106.9925 71.0000 -64.0000
v  -114.9925 71.0000 -72.0000
v  -106.9925 62.0000 64.0000
v  106.9925 62.0000 64.0000
v  -106.9925 71.0000 64.0000
v  -114.9925 71.0000 72.0000
v  -115.9925 71.0000 71.0000
v  -106.9925 62.0000 -64.0000
v  106.9925 62.0000 -64.0000
v  107.9925 9.0000 -63.0000
v  107.9925 9.0000 63.0000
v  -107.9925 9.0000 63.0000
v  -107.9925 9.0000 -63.0000
v  -115.9925 71.0000 -71.0000
v  -101.9925 0.0000 58.0000
v  -103.9925 61.0018 60.0000
v  -101.9925 0.0000 54.0000
v  -103.9925 61.0018 52.0000
v  -95.9925 61.0018 52.0000
v  -97.9925 0.0000 54.0000
v  -95.9925 61.0018 60.0000
v  -97.9925 0.0000 58.0000
v  -97.9925 0.0000 -54.0000
v  -103.9925 61.0018 -52.0000
v  -101.9925 0.0000 -54.0000
v  -95.9925 61.0018 -52.0000
v  -97.9925 0.0000 -58.0000
v  -95.9925 61.0018 -60.0000
v  -101.9925 0.0000 -58.0000
v  -103.9925 61.0018 -60.0000
v  97.9925 0.0000 -58.0000
v  95.9925 61.0018 -52.0000
v  95.9925 61.0018 -60.0000
v  97.9925 0.0000 -54.0000
v  101.9925 0.0000 -54.0000
v  103.9925 61.0018 -52.0000
v  101.9925 0.0000 -58.0000
v  103.9925 61.0018 -60.0000
v  101.9925 0.0000 54.0000
v  103.9925 61.0018 60.0000
v  101.9925 0.0000 58.0000
v  103.9925 61.0018 52.0000
v  97.9925 0.0000 54.0000
v  95.9925 61.0018 52.0000
v  97.9925 0.0000 58.0000
v  95.9925 61.0018 60.0000
# 104 vertices

vn 0.6739 -0.6739 -0.3029
vn 0.6739 -0.6739 0.3029
vn 0.3562 -0.8982 0.2575
vn 0.3562 -0.8982 -0.2575
vn 0.0000 1.0000 0.0000
vn -0.9239 0.0000 -0.3827
vn -0.8756 0.3416 0.3416
vn -0.8756 0.3416 -0.3416
vn -0.9239 0.0000 0.3827
vn -0.3827 0.0000 0.9239
vn -0.3692 0.3361 0.8664
vn -0.4606 0.7588 0.4606
vn -0.4606 0.7588 -0.4606
vn -0.3692 0.3361 -0.8664
vn -0.3827 0.0000 -0.9239
vn 0.4606 0.7588 0.4606
vn 0.3692 0.3361 0.8664
vn 0.3827 0.0000 0.9239
vn 0.4606 0.7588 -0.4606
vn 0.3692 0.3361 -0.8664
vn 0.3827 0.0000 -0.9239
vn 0.8756 0.3416 0.3416
vn 0.9239 0.0000 0.3827
vn 0.9239 0.0000 -0.3827
vn 0.8756 0.3416 -0.3416
vn 0.1095 -0.9134 0.3921
vn 0.5385 -0.8008 0.2623
vn 0.2113 -0.7887 0.5773
vn 0.3862 -0.9154 0.1132
vn 0.5774 -0.7887 -0.2113
vn 0.3921 -0.9134 -0.1095
vn -0.0000 -1.0000 -0.0000
vn 0.0000 -1.0000 -0.0000
vn 0.3416 0.8756 0.3416
vn 0.3029 0.6739 0.6739
vn 0.6861 0.6861 0.2418
vn -0.3416 0.8756 0.3416
vn -0.6861 0.6861 0.2418
vn -0.3029 0.6739 0.6739
vn -0.3416 0.8756 -0.3416
vn 0.3416 0.8756 -0.3416
vn 0.6861 0.6861 -0.2418
vn 0.3029 0.6739 -0.6739
vn -0.3029 0.6739 -0.6739
vn -0.6861 0.6861 -0.2418
vn -0.3562 -0.8982 -0.2575
vn -0.3562 -0.8982 0.2575
vn 0.3770 -0.7655 0.5214
vn -0.3029 -0.6739 0.6739
vn -0.3770 -0.7655 0.5214
vn 0.3029 -0.6739 0.6739
vn 0.3029 -0.6739 -0.6739
vn -0.3770 -0.7655 -0.5214
vn -0.3029 -0.6739 -0.6739
vn 0.3770 -0.7655 -0.5214
vn 0.1132 -0.9154 -0.3862
vn -0.1095 -0.9134 -0.3921
vn 0.2623 -0.8008 -0.5385
vn -0.2113 -0.7887 -0.5774
vn -0.6739 -0.6739 -0.3029
vn -0.6739 -0.6739 0.3029
vn -0.2418 -0.6861 0.6861
vn 0.2418 -0.6861 0.6861
vn -0.1132 -0.9154 0.3862
vn -0.3921 -0.9134 0.1095
vn -0.5773 -0.7887 0.2113
vn -0.2623 -0.8008 0.5385
vn -0.2418 -0.6861 -0.6861
vn 0.2418 -0.6861 -0.6861
vn 0.6861 -0.6861 -0.2418
vn 0.6861 -0.6861 0.2418
vn -0.3862 -0.9154 -0.1132
vn -0.5385 -0.8008 -0.2623
vn -0.6861 -0.6861 0.2418
vn -0.6861 -0.6861 -0.2418
vn -0.7063 -0.0463 0.7063
vn -0.7063 -0.0463 -0.7063
vn 0.7063 -0.0463 -0.7063
vn 0.7063 -0.0463 0.7063
# 79 vertex normals

vt 0.9526 0.8911 0.8911
vt 0.9526 0.5557 0.5557
vt 0.9561 0.5557 0.5557
vt 0.9561 0.8911 0.8911
vt 0.8535 0.9156 0.9156
vt 0.1027 0.9161 0.9161
vt 0.8535 0.5310 0.5310
vt 0.1027 0.5317 0.5317
vt 0.0651 0.9159 0.9159
vt 0.0993 0.5317 0.5317
vt 0.0993 0.9161 0.9161
vt 0.0651 0.5320 0.5320
vt 0.0651 0.5281 0.5281
vt 0.0993 0.5281 0.5281
vt 0.0993 0.9197 0.9197
vt 0.0651 0.9197 0.9197
vt 0.8535 0.5273 0.5273
vt 0.1027 0.5278 0.5278
vt 0.8535 0.5002 0.5002
vt 0.1027 0.5010 0.5010
vt 0.1027 0.9200 0.9200
vt 0.8535 0.9194 0.9194
vt 0.1027 0.9469 0.9469
vt 0.8535 0.9463 0.9463
vt 0.8569 0.5313 0.5313
vt 0.8911 0.5276 0.5276
vt 0.8911 0.5313 0.5313
vt 0.8911 0.9153 0.9153
vt 0.8569 0.9155 0.9155
vt 0.8569 0.9191 0.9191
vt 0.8569 0.5276 0.5276
vt 0.8911 0.9191 0.9191
vt 0.0342 0.8918 0.8918
vt 0.0034 0.5562 0.5562
vt 0.0342 0.5559 0.5559
vt 0.0034 0.8917 0.8917
vt 0.8979 0.5315 0.5315
vt 0.8945 0.5288 0.5288
vt 0.8945 0.5339 0.5339
vt 0.8945 0.9126 0.9126
vt 0.9219 0.8912 0.8912
vt 0.9219 0.5554 0.5554
vt 0.9253 0.5527 0.5527
vt 0.0836 0.4116 0.4116
vt 0.0797 0.4155 0.4155
vt 0.0797 0.4116 0.4116
vt 0.8696 0.4116 0.4116
vt 0.8735 0.4116 0.4116
vt 0.8735 0.4155 0.4155
vt 0.8696 0.0303 0.0303
vt 0.0836 0.0303 0.0303
vt 0.0797 0.0303 0.0303
vt 0.0797 0.0264 0.0264
vt 0.0836 0.4160 0.4160
vt 0.8696 0.4160 0.4160
vt 0.8696 0.0259 0.0259
vt 0.0836 0.0259 0.0259
vt 0.8735 0.0264 0.0264
vt 0.8735 0.0303 0.0303
vt 0.7251 0.3901 0.3901
vt 0.2151 0.0591 0.0591
vt 0.7251 0.0591 0.0591
vt 0.2151 0.3901 0.3901
vt 0.0836 0.4375 0.4375
vt 0.8696 0.4375 0.4375
vt 0.0836 0.4414 0.4414
vt 0.8696 0.4414 0.4414
vt 0.0836 0.0044 0.0044
vt 0.8696 0.0000 0.0000
vt 0.8696 0.0044 0.0044
vt 0.0836 0.0005 0.0005
vt 0.1342 0.9722 0.9722
vt 0.8501 0.9501 0.9501
vt 0.8218 0.9716 0.9716
vt 0.1061 0.9507 0.9507
vt 0.8535 0.9527 0.9527
vt 0.8262 0.9744 0.9744
vt 0.8569 0.9489 0.9489
vt 0.0000 0.5562 0.5562
vt 0.0000 0.8917 0.8917
vt 0.1346 0.4478 0.4478
vt 0.1346 0.4517 0.4517
vt 0.1312 0.4517 0.4517
vt 0.8213 0.4512 0.4512
vt 0.8213 0.4473 0.4473
vt 0.8247 0.4512 0.4512
vt 0.8247 0.4751 0.4751
vt 0.8218 0.4751 0.4751
vt 0.1342 0.4756 0.4756
vt 0.1312 0.4756 0.4756
vt 0.8501 0.4966 0.4966
vt 0.1061 0.4971 0.4971
vt 0.1301 0.4731 0.4731
vt 0.1027 0.4946 0.4946
vt 0.0993 0.4985 0.4985
vt 0.1312 0.9964 0.9964
vt 0.1346 0.9962 0.9962
vt 0.1346 1.0000 1.0000
vt 0.8213 0.9957 0.9957
vt 0.8213 0.9995 0.9995
vt 0.8247 0.9959 0.9959
vt 0.0525 0.0303 0.0303
vt 0.0486 0.0303 0.0303
vt 0.0525 0.0264 0.0264
vt 0.0525 0.4116 0.4116
vt 0.0486 0.4116 0.4116
vt 0.0525 0.4155 0.4155
vt 0.9009 0.4155 0.4155
vt 0.9009 0.4116 0.4116
vt 0.9009 0.0303 0.0303
vt 0.9009 0.0264 0.0264
vt 0.0616 0.5347 0.5347
vt 0.0616 0.9132 0.9132
vt 0.0308 0.8945 0.8945
vt 0.0582 0.9158 0.9158
vt 0.0616 0.9185 0.9185
vt 0.9043 0.4116 0.4116
vt 0.9043 0.0303 0.0303
vt 0.8247 0.9719 0.9719
vt 0.1312 0.9724 0.9724
vt 0.9702 0.3374 0.3374
vt 0.9927 0.5203 0.5203
vt 0.9580 0.3374 0.3374
vt 0.9688 0.5203 0.5203
vt 0.9448 0.5203 0.5203
vt 0.9463 0.3374 0.3374
vt 0.9204 0.5203 0.5203
vt 0.9341 0.3374 0.3374
vt 0.8965 0.5203 0.5203
vt 0.9224 0.3374 0.3374
# 130 texture coords

o AA_Kitchen_CounterC_St
g AA_Kitchen_CounterC_St
usemtl AA_Kitchen_CounterC_Mic
s 1
f 1/1/1 2/2/2 3/3/3 
f 1/1/1 3/3/3 4/4/4 
f 5/5/5 6/6/5 7/7/5 
f 7/7/5 6/6/5 8/8/5 
f 9/9/6 10/10/7 11/11/8 
f 10/10/7 9/9/6 12/12/9 
f 13/13/10 10/10/7 12/12/9 
f 10/10/7 13/13/10 14/14/11 
f 8/8/12 10/10/7 14/14/11 
f 8/8/12 11/11/8 10/10/7 
f 11/11/8 8/8/12 6/6/13 
f 6/6/13 15/15/14 11/11/8 
f 15/15/14 9/9/6 11/11/8 
f 9/9/6 15/15/14 16/16/15 
f 7/7/16 8/8/12 17/17/17 
f 17/17/17 8/8/12 14/18/11 
f 17/17/17 14/18/11 18/19/18 
f 18/19/18 14/18/11 13/20/10 
f 5/5/19 15/21/14 6/6/13 
f 15/21/14 5/5/19 19/22/20 
f 19/22/20 16/23/15 15/21/14 
f 20/24/21 16/23/15 19/22/20 
f 21/25/22 18/26/18 22/27/23 
f 22/27/23 23/28/24 21/25/22 
f 24/29/25 21/25/22 23/28/24 
f 23/28/24 19/30/20 24/29/25 
f 5/5/19 24/29/25 19/30/20 
f 7/7/16 24/29/25 5/5/19 
f 24/29/25 7/7/16 21/25/22 
f 7/7/16 17/31/17 21/25/22 
f 17/31/17 18/26/18 21/25/22 
f 19/30/20 23/28/24 20/32/21 
f 25/33/6 26/34/9 27/35/9 
f 26/34/9 25/33/6 28/36/6 
f 29/37/26 22/27/27 18/38/28 
f 22/27/27 29/37/26 30/39/29 
f 23/28/30 22/27/27 31/40/31 
f 31/40/31 22/27/27 30/39/29 
f 31/40/31 30/39/29 32/41/32 
f 32/41/32 30/39/29 33/42/33 
f 33/42/33 30/39/29 29/37/26 
f 29/37/26 34/43/33 33/42/33 
f 35/44/34 36/45/35 37/46/36 
f 38/47/37 39/48/38 40/49/39 
f 41/50/40 39/48/38 38/47/37 
f 35/44/34 41/50/40 38/47/37 
f 41/50/40 35/44/34 42/51/41 
f 37/46/36 42/51/41 35/44/34 
f 37/46/36 43/52/42 42/51/41 
f 42/51/41 43/52/42 44/53/43 
f 36/54/35 38/47/37 40/55/39 
f 38/47/37 36/54/35 35/44/34 
f 42/51/41 45/56/44 41/50/40 
f 45/56/44 42/51/41 44/57/43 
f 41/50/40 45/58/44 46/59/45 
f 39/48/38 41/50/40 46/59/45 
f 47/60/46 3/61/3 48/62/47 
f 3/61/3 47/60/46 4/63/4 
f 32/41/24 33/42/23 2/2/23 
f 32/41/24 2/2/23 1/1/24 
f 49/64/18 40/55/10 50/65/10 
f 40/55/10 49/64/18 36/54/18 
f 51/66/48 50/65/49 52/67/50 
f 50/65/49 51/66/48 49/64/51 
f 53/68/52 54/69/53 55/70/54 
f 54/69/53 53/68/52 56/71/55 
f 44/57/21 55/70/15 45/56/15 
f 55/70/15 44/57/21 53/68/21 
f 57/72/33 58/73/56 59/74/32 
f 58/73/56 57/72/33 60/75/57 
f 20/24/58 60/75/57 16/23/59 
f 60/75/57 20/24/58 58/73/56 
f 31/76/31 58/73/56 20/24/58 
f 31/76/31 59/74/32 58/73/56 
f 59/74/32 31/76/31 32/77/32 
f 20/24/58 23/78/30 31/76/31 
f 28/36/60 48/79/47 26/34/61 
f 48/79/47 28/36/60 47/80/46 
f 48/81/47 61/82/62 26/83/61 
f 48/81/47 62/84/63 61/82/62 
f 62/84/63 48/81/47 3/85/3 
f 3/85/3 2/86/2 62/84/63 
f 2/86/23 33/87/23 34/88/18 
f 34/88/18 62/84/18 2/86/23 
f 34/88/18 61/82/10 62/84/18 
f 61/82/10 34/88/18 63/89/10 
f 61/82/10 63/89/10 26/83/9 
f 26/83/9 63/89/10 27/90/9 
f 29/91/26 64/92/64 34/88/33 
f 34/88/33 64/92/64 63/89/32 
f 64/92/64 27/93/32 63/89/32 
f 27/93/32 64/92/64 65/94/65 
f 64/92/64 12/95/66 65/94/65 
f 12/95/66 64/92/64 13/20/67 
f 29/91/26 13/20/67 64/92/64 
f 18/19/28 13/20/67 29/91/26 
f 28/96/60 66/97/68 47/98/46 
f 67/99/69 47/98/46 66/97/68 
f 47/98/46 67/99/69 4/100/4 
f 1/101/1 4/100/4 67/99/69 
f 68/102/70 56/103/55 53/104/52 
f 68/102/70 69/105/71 56/103/55 
f 51/106/48 56/103/55 69/105/71 
f 51/106/48 69/105/71 49/107/51 
f 50/108/10 40/49/10 70/109/9 
f 70/109/9 40/49/10 39/48/9 
f 71/110/6 70/109/9 39/48/9 
f 71/110/6 39/48/9 46/59/6 
f 71/110/6 46/59/6 55/111/15 
f 55/111/15 46/59/6 45/58/15 
f 65/112/65 25/33/33 27/35/32 
f 25/33/33 65/112/65 72/113/72 
f 72/113/72 57/114/33 25/33/33 
f 60/115/57 57/114/33 72/113/72 
f 72/113/72 16/116/59 60/115/57 
f 16/116/59 72/113/72 9/9/73 
f 65/112/65 9/9/73 72/113/72 
f 12/12/66 9/9/73 65/112/65 
f 52/117/50 50/108/49 70/109/74 
f 54/118/53 52/117/50 70/109/74 
f 54/118/53 70/109/74 71/110/75 
f 71/110/75 55/111/54 54/118/53 
f 43/52/24 53/104/21 44/53/21 
f 53/104/21 43/52/24 68/102/24 
f 43/52/24 37/46/23 68/102/24 
f 69/105/23 68/102/24 37/46/23 
f 36/45/18 69/105/23 37/46/23 
f 69/105/23 36/45/18 49/107/18 
f 32/119/24 1/101/24 67/99/21 
f 32/119/24 67/99/21 59/74/21 
f 67/99/21 57/72/15 59/74/21 
f 57/72/15 67/99/21 66/97/15 
f 57/72/15 66/97/15 25/120/6 
f 28/96/6 25/120/6 66/97/15 
f 73/121/76 74/122/76 75/123/77 
f 74/122/76 76/124/77 75/123/77 
f 77/125/78 75/123/77 76/124/77 
f 77/125/78 78/126/78 75/123/77 
f 79/127/79 78/126/78 77/125/78 
f 78/126/78 79/127/79 80/128/79 
f 80/128/79 79/127/79 74/129/76 
f 80/128/79 74/129/76 73/130/76 
f 81/128/79 82/129/76 83/130/76 
f 81/128/79 84/127/79 82/129/76 
f 85/126/78 84/127/79 81/128/79 
f 84/127/79 85/126/78 86/125/78 
f 86/125/78 85/126/78 87/123/77 
f 86/125/78 87/123/77 88/124/77 
f 87/123/77 82/122/76 88/124/77 
f 82/122/76 87/123/77 83/121/76 
f 89/130/77 90/127/76 91/129/77 
f 90/127/76 89/130/77 92/128/76 
f 93/126/79 90/127/76 92/128/76 
f 93/126/79 94/125/79 90/127/76 
f 95/123/78 94/125/79 93/126/79 
f 94/125/79 95/123/78 96/124/78 
f 96/124/78 95/123/78 89/121/77 
f 96/124/78 89/121/77 91/122/77 
f 97/128/78 98/129/79 99/130/79 
f 98/129/79 97/128/78 100/127/78 
f 100/127/78 97/128/78 101/126/77 
f 100/127/78 101/126/77 102/125/77 
f 102/125/77 101/126/77 103/123/76 
f 103/123/76 104/124/76 102/125/77 
f 99/121/79 104/124/76 103/123/76 
f 99/121/79 98/122/79 104/124/76 
# 0 polygons - 166 triangles

