# Blender v2.76 (sub 0) OBJ File: 'ExportAll.blend'
# www.blender.org
mtllib Japanese Bed.mtl
o polygon2.122
v 1.000000 1.699951 -2.200195
v 1.000000 1.699951 -1.400146
v 1.199951 1.299805 -2.500244
v 1.199951 1.299805 -1.100098
v -1.199951 1.300293 -2.499756
v -1.199951 1.300293 -1.099854
v -1.000000 1.700195 -2.199707
v -1.000000 1.700195 -1.399902
v 1.199951 1.299805 -1.100098
v 1.000000 1.699951 -1.400146
v -1.199951 1.300293 -1.099854
v -1.000000 1.700195 -1.399902
v -1.199951 1.300293 -2.499756
v -1.000000 1.700195 -2.199707
v 1.199951 1.299805 -2.500244
v 1.000000 1.699951 -2.200195
v 1.000000 1.699951 -1.400146
v 1.000000 1.699951 -2.200195
v -1.000000 1.700195 -1.399902
v -1.000000 1.700195 -2.199707
vt 0.900391 -0.289062
vt 0.900391 -0.710938
vt 1.041016 -0.027344
vt 1.041016 -1.003906
vt -0.041016 -0.027344
vt -0.041016 -1.003906
vt 0.099609 -0.289062
vt 0.099609 -0.710938
vn 0.894400 0.447300 0.000000
vn 0.894500 0.447000 0.000000
vn -0.894400 0.447200 0.000000
vn -0.000000 0.599300 0.800500
vn -0.000000 0.808800 0.588000
vn -0.000000 0.599400 0.800500
vn 0.000000 0.955500 0.295100
vn 0.000000 0.599300 -0.800500
vn -0.000000 0.808800 -0.588100
vn -0.000000 0.599500 -0.800400
vn -0.000000 0.955500 -0.295000
vn -0.000100 0.808800 0.588100
vn 0.000000 0.955500 -0.295100
vn -0.000100 0.808800 -0.588100
usemtl Material1235
s 1
f 1/1/1 2/2/2 3/3/2
f 2/2/2 4/4/2 3/3/2
f 5/5/3 6/6/3 7/7/3
f 6/6/3 8/8/3 7/7/3
f 9/4/4 10/2/5 11/6/6
f 10/2/5 12/8/7 11/6/6
f 13/5/8 14/7/9 15/3/10
f 14/7/9 16/1/11 15/3/10
f 17/2/12 18/1/13 19/8/7
f 18/1/13 20/7/14 19/8/7
o polygon4.071
v 1.500000 1.100098 -1.000000
v 1.600098 1.100098 -1.000000
v 1.500000 1.100098 -2.699951
v 2.000000 1.100098 -1.000000
v 2.000000 1.100098 -3.000000
v 2.000000 1.100098 -1.000000
v 1.600098 1.100098 -1.000000
v 2.000000 1.100098 3.000000
v 1.600098 1.100098 2.600098
v -1.600098 1.100098 2.600098
v -2.000000 1.100098 -3.000000
v 2.000000 1.100098 -3.000000
v -2.000000 0.899903 -3.000000
v 2.000000 0.899903 -3.000000
v 2.000000 1.100098 3.000000
v -2.000000 1.100098 3.000000
v 2.000000 0.899902 3.000000
v -2.000000 0.899902 3.000000
v 2.000000 1.100098 -1.000000
v 2.000000 1.100098 3.000000
v 2.000000 0.899902 -1.000000
v 2.000000 0.899902 3.000000
v -2.000000 0.899902 -1.000000
v -2.000000 0.899902 3.000000
v -2.000000 1.100098 -1.000000
v -2.000000 1.100098 3.000000
v -2.000000 1.100098 -1.000000
v -2.000000 1.100098 -3.000000
v -2.000000 0.899902 -1.000000
v -2.000000 0.899903 -3.000000
v 2.000000 0.899903 -3.000000
v 2.000000 1.100098 -3.000000
v 2.000000 0.899902 -1.000000
v 2.000000 1.100098 -1.000000
v -2.000000 1.100098 -1.000000
v -2.000000 1.100098 3.000000
v -1.600098 1.100098 -1.000000
v -1.600098 1.100098 2.600098
v -1.500000 1.100098 -1.000000
v -1.500000 1.100098 -2.699951
v -1.600098 1.100098 -1.000000
v -2.000000 1.100098 -1.000000
v 2.000000 1.100098 -3.000000
v -2.000000 1.100098 -3.000000
v 1.500000 1.100098 -2.699951
v -1.500000 1.100098 -2.699951
v 2.000000 1.100098 3.000000
v -1.600098 1.100098 2.600098
v -2.000000 1.100098 3.000000
v -2.000000 1.100098 -1.000000
v -1.500000 1.100098 -2.699951
v -2.000000 1.100098 -3.000000
vt 0.875977 -0.485352
vt 0.901367 -0.485352
vt 0.875977 -0.060547
vt 1.000977 -0.485352
vt 1.000977 0.014648
vt 1.000000 -0.045898
vt 0.900391 -0.045898
vt 1.000000 -1.045898
vt 0.900391 -0.946289
vt 0.100586 -0.946289
vt 0.000977 0.014648
vt 1.000977 0.100586
vt 0.000977 0.100586
vt 0.000000 -1.045898
vt 1.000000 -1.120117
vt 0.000000 -1.120117
vt 1.027344 -0.045898
vt 1.027344 -1.045898
vt -0.027344 -0.045898
vt -0.027344 -1.045898
vt 0.000000 -0.045898
vt 0.000977 -0.485352
vt -0.027344 -0.485352
vt -0.027344 0.014648
vt 1.027344 0.014648
vt 1.027344 -0.485352
vt 0.100586 -0.045898
vt 0.125977 -0.485352
vt 0.125977 -0.060547
vt 0.100586 -0.485352
vn 0.000000 1.000000 0.000000
vn 0.283100 0.948700 -0.140600
vn 0.140600 0.948700 0.283100
vn -0.232600 0.965500 0.117300
vn 0.000000 0.000000 -1.000000
vn 0.000000 0.000000 1.000000
vn 1.000000 0.000000 0.000000
vn -1.000000 0.000000 0.000000
vn -0.175800 0.968600 -0.175800
usemtl Material1322
s 1
f 21/9/15 22/10/15 23/11/15
f 22/10/15 24/12/15 23/11/15
f 23/11/15 24/12/15 25/13/15
f 26/14/15 27/15/16 28/16/15
f 27/15/16 29/17/17 28/16/15
f 28/16/15 29/17/17 30/18/18
f 31/13/19 32/19/19 33/20/19
f 32/19/19 34/21/19 33/20/19
f 35/16/20 36/22/20 37/23/20
f 36/22/20 38/24/20 37/23/20
f 39/14/21 40/16/21 41/25/21
f 40/16/21 42/26/21 41/25/21
f 43/27/22 44/28/22 45/29/22
f 44/28/22 46/22/22 45/29/22
f 47/30/22 48/19/22 49/31/22
f 48/19/22 50/32/22 49/31/22
f 51/33/21 52/13/21 53/34/21
f 52/13/21 54/12/21 53/34/21
f 55/29/15 56/22/15 57/35/23
f 56/22/15 58/18/18 57/35/23
f 59/36/15 60/37/15 61/38/15
f 60/37/15 62/30/15 61/38/15
f 63/13/15 64/19/15 65/11/15
f 64/19/15 66/37/15 65/11/15
f 67/16/15 68/18/18 69/22/15
f 70/30/15 71/37/15 72/19/15
o polygon3.084
v 1.500000 1.100098 -1.000000
v 1.300049 1.350098 -0.699951
v 1.600098 1.100098 -1.000000
v 1.300049 1.350098 2.300049
v 1.600098 1.100098 2.600098
v -1.300049 1.350098 2.300049
v -1.600098 1.100098 2.600098
v -1.300049 1.350098 -0.699951
v -1.600098 1.100098 -1.000000
v -1.500000 1.100098 -1.000000
v 1.500000 1.100098 -1.000000
v -1.500000 1.100098 -1.000000
v 1.300049 1.350098 -0.699951
v -1.300049 1.350098 -0.699951
v -1.300049 1.350098 2.300049
v 1.300049 1.350098 2.300049
v 1.300049 1.350098 -0.699951
v -1.300049 1.350098 2.300049
vt 0.885742 -0.015625
vt 0.885742 -0.100586
vt 0.975586 -0.015625
vt 0.885742 -0.908203
vt 0.975586 -0.984375
vt 0.114258 -0.908203
vt 0.024414 -0.984375
vt 0.114258 -0.100586
vt 0.024414 -0.015625
vt 0.114258 -0.015625
vn 0.000000 0.767700 -0.640800
vn 0.117100 0.928900 -0.351300
vn 0.283100 0.948800 -0.140500
vn 0.355400 0.917700 0.177700
vn 0.140600 0.948700 0.283100
vn -0.140600 0.948700 0.283100
vn -0.232600 0.965500 0.117200
vn -0.287100 0.913900 -0.287000
vn -0.175800 0.968600 -0.175800
vn -0.000000 0.767700 -0.640900
vn -0.287100 0.913900 -0.287100
vn -0.140500 0.948700 0.283100
usemtl Material.020
s 1
f 73/39/24 74/40/25 75/41/26
f 74/40/25 76/42/27 75/41/26
f 75/41/26 76/42/27 77/43/28
f 76/42/27 78/44/29 77/43/28
f 77/43/28 78/44/29 79/45/30
f 78/44/29 80/46/31 79/45/30
f 79/45/30 80/46/31 81/47/32
f 80/46/31 82/48/24 81/47/32
f 83/39/24 84/48/33 85/40/25
f 84/48/33 86/46/34 85/40/25
f 85/40/25 86/46/34 87/44/35
f 88/42/27 89/40/25 90/44/29
o polygon0.152
v -1.500000 1.100098 -1.000000
v 1.500000 1.100098 -1.000000
v -1.500000 1.100098 -2.699951
v 1.500000 1.100098 -2.699951
vt 0.009766 -0.970703
vt 0.990234 -0.970703
vt 0.009766 -0.009766
vt 0.990234 -0.009766
vn 0.000000 1.000000 0.000000
usemtl Material1236
s 1
f 91/49/36 92/50/36 93/51/36
f 92/50/36 94/52/36 93/51/36
o polygon1.149
v 2.000000 -0.000000 3.000000
v 2.000000 0.000000 -3.000000
v 2.000000 0.899902 3.000000
v 2.000000 0.899902 -1.000000
v -2.000000 0.000000 -3.000000
v -2.000000 -0.000000 3.000000
v -2.000000 0.899903 -3.000000
v -2.000000 0.899902 -1.000000
v -2.000000 0.899902 3.000000
v -2.000000 -0.000000 3.000000
v 2.000000 0.899902 3.000000
v 2.000000 -0.000000 3.000000
v 2.000000 0.899903 -3.000000
v 2.000000 0.000000 -3.000000
v -2.000000 0.899903 -3.000000
v -2.000000 0.000000 -3.000000
v 2.000000 0.899903 -3.000000
v 2.000000 0.899902 -1.000000
v 2.000000 0.000000 -3.000000
v -2.000000 0.899902 3.000000
v -2.000000 0.899902 -1.000000
v -2.000000 -0.000000 3.000000
vt 0.000000 -1.000000
vt 1.000000 -1.000000
vt 0.000000 0.000000
vt 0.750000 0.000000
vt 0.250000 0.000000
vt 1.000000 0.000000
vn 1.000000 0.000000 0.000000
vn -1.000000 0.000000 0.000000
vn 0.000000 -0.000000 1.000000
vn 0.000000 0.000000 -1.000000
usemtl Material116
s 1
f 95/53/37 96/54/37 97/55/37
f 96/54/37 98/56/37 97/55/37
f 99/53/38 100/54/38 101/55/38
f 100/54/38 102/57/38 101/55/38
f 103/55/39 104/53/39 105/58/39
f 104/53/39 106/54/39 105/58/39
f 107/55/40 108/53/40 109/58/40
f 108/53/40 110/54/40 109/58/40
f 111/58/37 112/56/37 113/54/37
f 114/58/38 115/57/38 116/54/38
