#
# generated by kHED
#
mtllib spoopy_piano.mtl
# vertices:
v 0.001319 2.430271 -1.917278
v 1.873269 2.454719 -1.916483
v 1.883802 1.646835 -1.908629
v 1.864153 2.496187 2.615728
v 1.875185 1.690886 2.631309
v -2.654658 2.407304 -0.716421
v -0.751893 2.430088 -0.927225
v -0.735610 1.182287 -0.915096
v -2.638379 1.159501 -0.704276
v 0.017598 1.182469 -1.905129
v 1.889554 1.206895 -1.904356
v 1.836470 1.215739 -0.925046
v 1.241081 1.204613 -1.268930
v 1.651657 0.089974 -1.256803
v -2.155840 1.178507 0.602120
v -2.157082 1.185220 1.294103
v -2.341842 0.059423 0.958353
v -2.752418 1.174074 0.946224
v 1.837659 1.209066 -1.613035
v -2.662506 2.437990 2.613044
v -3.528362 2.420469 1.808039
v -3.512079 1.172662 1.820172
v 1.830058 1.240709 1.650910
v 1.828835 1.247422 2.342895
v 1.648079 0.121681 2.007189
v 1.233484 1.236281 1.995000
v -3.525712 2.404007 0.112067
v -2.646877 1.191798 2.627629
v -3.509426 1.156198 0.124192
v 1.880918 1.250961 2.635588
v -3.380813 1.710015 0.132613
v -2.570458 1.681334 -0.612358
v 0.024788 1.735743 -1.790306
v 1.752667 1.758344 -1.783433
v -0.691954 1.703987 -0.803493
v -2.656427 1.742483 2.498240
v -3.382181 1.725574 1.732625
v 1.747400 1.799990 2.504545
v 2.727743 1.657881 -1.905457
v 2.719124 1.701926 2.634487
v 2.724858 1.262000 2.638759
v 2.733491 1.217944 -1.901174
v -2.671422 3.813253 -0.436380
v -3.536119 3.457031 0.319143
v -3.529562 2.751195 1.865530
v -0.024487 4.356027 -1.527412
v -0.768508 3.929470 -0.624263
v 1.851236 4.383353 -1.522744
v 1.832418 3.010419 -0.326631
v 1.820642 3.811866 -0.308424
v 1.823072 3.548404 0.274797
v 1.839249 2.141639 2.082390
v 1.830454 2.752428 2.017452
v 1.838444 2.299995 1.459719
v 1.827988 3.017857 1.439541
v 1.837397 2.476240 0.836450
v 1.825557 3.281312 0.856325
v 1.836204 2.660031 0.225449
v 0.492726 3.756686 -1.690413
v 0.213856 4.328269 -1.497157
v 0.761779 4.336243 -1.495794
v 1.828516 3.366710 -0.862818
v 1.818150 4.078123 -0.888145
v 1.825556 3.662876 -1.430990
v 1.811651 4.348360 -1.481430
v 1.588684 3.765382 -1.691024
v 1.309699 4.344229 -1.494428
v 1.044348 3.782906 -1.680680
v -3.476898 2.560273 1.104217
v -3.482538 2.862840 1.595304
v -3.484993 3.128122 1.012929
v 0.016652 3.749856 -1.634324
v -0.197098 4.214054 -1.252997
v -0.326539 3.634585 -1.289710
v -0.467118 4.001422 -0.799353
v -0.665085 3.464476 -0.873452
v -0.891910 3.871687 -0.531434
v -1.161247 3.443327 -0.700626
v -1.443584 3.838609 -0.478300
v -1.724733 3.398871 -0.661466
v -2.051287 3.806368 -0.428935
v -3.479366 2.825694 0.526302
v -3.487456 3.393406 0.430563
v -3.249548 3.059437 0.025313
v -3.025274 3.588791 0.021000
v -2.807292 3.246194 -0.366125
v -2.582985 3.775259 -0.379371
v -2.256443 3.369421 -0.615541

# texture coords:
vt 0.005894 0.011445 0.0
vt 4.433322 0.931688 0.0
vt 4.423556 0.023084 0.0
vt 0.005894 0.011445 0.0
vt 0.006619 0.993870 0.0
vt 4.433322 0.931688 0.0
vt 0.994438 0.006611 0.0
vt 0.011869 0.006611 0.0
vt 0.011869 0.994892 0.0
vt 0.994438 0.006611 0.0
vt 0.011869 0.994892 0.0
vt 0.994438 0.994892 0.0
vt 0.964112 0.994892 0.0
vt 0.011869 0.006611 0.0
vt 0.964112 0.006611 0.0
vt 0.964112 0.994892 0.0
vt 0.011869 0.994892 0.0
vt 0.011869 0.006611 0.0
vt 0.002827 0.008963 0.0
vt 4.401265 0.992092 0.0
vt 0.002827 0.992092 0.0
vt 0.002827 0.008963 0.0
vt 4.401265 0.008963 0.0
vt 4.401265 0.992092 0.0
vt -0.335938 0.218750 0.0
vt 0.898438 0.863281 0.0
vt 0.523438 -0.558594 0.0
vt 0.974609 0.380859 0.0
vt 0.021484 0.857422 0.0
vt 0.132813 -0.560547 0.0
vt -0.076172 0.220703 0.0
vt 0.976563 0.884766 0.0
vt 0.855469 -0.464844 0.0
vt -0.361328 0.255859 0.0
vt 1.011719 0.943359 0.0
vt 0.574219 -0.636719 0.0
vt -0.179688 0.113281 0.0
vt 0.892578 0.810547 0.0
vt 0.552734 -0.560547 0.0
vt 0.066406 0.130859 0.0
vt 0.710938 0.871094 0.0
vt 0.708984 -0.535156 0.0
vt 0.013672 0.111328 0.0
vt 0.882813 0.804688 0.0
vt 0.847656 -0.878906 0.0
vt -0.041016 0.169922 0.0
vt 0.958984 0.875000 0.0
vt 0.951172 -0.664063 0.0
vt -0.021484 0.128906 0.0
vt 0.673828 0.869141 0.0
vt 0.560547 -0.611328 0.0
vt -0.037109 0.226563 0.0
vt 0.746094 0.736328 0.0
vt 0.634766 -0.470703 0.0
vt 0.087891 0.134766 0.0
vt 0.837891 0.787109 0.0
vt 0.955078 -0.847656 0.0
vt 0.117188 -0.017578 0.0
vt 0.796875 0.767578 0.0
vt 0.646484 -0.808594 0.0
vt 0.177734 0.193359 0.0
vt 0.789063 0.892578 0.0
vt 0.935547 -0.582031 0.0
vt -0.060547 0.177734 0.0
vt 0.814453 0.666016 0.0
vt 0.677734 -0.677734 0.0
vt 0.125000 0.302734 0.0
vt 0.728516 0.906250 0.0
vt 0.695313 -0.515625 0.0
vt 0.009766 0.298828 0.0
vt 0.808594 0.865234 0.0
vt 0.857422 -0.931641 0.0
vt -0.251953 0.216797 0.0
vt 0.820313 0.669922 0.0
vt 0.818359 -0.748047 0.0
vt -0.082031 0.160156 0.0
vt 0.845703 0.814453 0.0
vt 0.968750 -0.886719 0.0
vt -0.261719 0.125000 0.0
vt 0.851563 0.800781 0.0
vt 0.806641 -0.949219 0.0
vt 0.162109 0.085938 0.0
vt 0.816406 0.851563 0.0
vt 0.798828 -0.707031 0.0
vt 0.000000 0.000000 0.0
vt 0.000000 0.000000 0.0
vt 0.000000 0.000000 0.0
vt 0.000000 0.000000 0.0
vt 0.000000 0.000000 0.0
vt 0.000000 0.000000 0.0
vt 0.000000 0.000000 0.0
vt 0.000000 0.000000 0.0
vt 0.000000 0.000000 0.0
vt 0.000000 0.000000 0.0
vt 0.000000 0.000000 0.0
vt 0.000000 0.000000 0.0
vt 0.000000 0.000000 0.0
vt 0.000000 0.000000 0.0
vt 0.000000 0.000000 0.0
vt 0.000000 0.000000 0.0
vt 0.000000 0.000000 0.0
vt 0.000000 0.000000 0.0
vt 0.000000 0.000000 0.0
vt 0.000000 0.000000 0.0
vt 0.000000 0.000000 0.0
vt 0.000000 0.000000 0.0
vt 0.000000 0.000000 0.0
vt 0.000000 0.000000 0.0
vt 0.511719 0.939453 0.0
vt 0.947266 0.574219 0.0
vt 0.947266 0.939453 0.0
vt 0.802734 -0.099609 0.0
vt 0.312500 0.115234 0.0
vt 0.312500 1.000000 0.0
vt 0.802734 -0.099609 0.0
vt 0.312500 1.000000 0.0
vt 0.802734 0.785156 0.0
vt 0.269531 0.408203 0.0
vt 0.947266 0.035156 0.0
vt 0.947266 0.408203 0.0
vt 0.269531 0.408203 0.0
vt 0.269531 0.035156 0.0
vt 0.947266 0.035156 0.0
vt 0.269531 0.574219 0.0
vt 0.269531 0.408203 0.0
vt 0.947266 0.408203 0.0
vt 0.269531 0.574219 0.0
vt 0.947266 0.408203 0.0
vt 0.947266 0.574219 0.0
vt 0.511719 0.939453 0.0
vt 0.269531 0.939453 0.0
vt 0.269531 0.574219 0.0
vt 0.511719 0.939453 0.0
vt 0.269531 0.574219 0.0
vt 0.947266 0.574219 0.0
vt -0.125000 0.697266 0.0
vt 0.890625 0.656250 0.0
vt 0.835938 0.904297 0.0
vt -0.041016 0.839844 0.0
vt 0.871094 0.685547 0.0
vt 0.890625 0.912109 0.0
vt -0.072266 0.707031 0.0
vt 0.814453 0.556641 0.0
vt 0.830078 0.916016 0.0
vt 0.000000 0.718750 0.0
vt 0.835938 0.605469 0.0
vt 0.824219 0.796875 0.0
vt -0.082031 0.710938 0.0
vt 0.972656 0.580078 0.0
vt 0.962891 0.929688 0.0
vt 0.000000 0.048828 0.0
vt 0.953125 0.279297 0.0
vt 0.953125 0.048828 0.0
vt 0.160156 0.720703 0.0
vt 0.921875 0.568359 0.0
vt 0.902344 0.818359 0.0
vt -0.070313 0.714844 0.0
vt 0.878906 0.613281 0.0
vt 0.861328 0.916016 0.0
vt -0.113281 0.697266 0.0
vt 0.966797 0.656250 0.0
vt 0.986328 0.966797 0.0
vt -0.091797 0.671875 0.0
vt 0.875000 0.613281 0.0
vt 0.937500 0.925781 0.0
vt 0.269531 0.035156 0.0
vt 0.947266 -0.152344 0.0
vt 0.947266 0.035156 0.0
vt 0.000000 0.048828 0.0
vt 0.000000 0.279297 0.0
vt 0.953125 0.279297 0.0
vt -0.117188 0.736328 0.0
vt 0.931641 0.949219 0.0
vt 0.896484 0.736328 0.0
vt -0.117188 0.736328 0.0
vt -0.082031 0.949219 0.0
vt 0.931641 0.949219 0.0
vt 0.062500 0.582031 0.0
vt 0.824219 0.966797 0.0
vt 0.824219 0.582031 0.0
vt 0.062500 0.582031 0.0
vt 0.333984 0.966797 0.0
vt 0.824219 0.966797 0.0
vt 0.062500 0.582031 0.0
vt 0.062500 0.966797 0.0
vt 0.333984 0.966797 0.0
vt 0.269531 0.035156 0.0
vt 0.269531 -0.152344 0.0
vt 0.947266 -0.152344 0.0
vt 0.033203 0.757813 0.0
vt 1.033203 0.410156 0.0
vt 1.105469 0.646484 0.0
vt 0.033203 0.757813 0.0
vt 0.966797 0.996094 0.0
vt 0.761719 1.097656 0.0
vt 0.033203 0.757813 0.0
vt 1.105469 0.646484 0.0
vt 0.966797 0.996094 0.0
vt 0.033203 0.757813 0.0
vt 0.705078 -0.037109 0.0
vt 0.744141 0.222656 0.0
vt 0.033203 0.757813 0.0
vt 0.744141 0.222656 0.0
vt 1.033203 0.410156 0.0
vt 0.033203 0.757813 0.0
vt 0.402344 -0.179688 0.0
vt 0.705078 -0.037109 0.0
vt -0.242188 0.015625 0.0
vt 0.000000 0.914063 0.0
vt 1.726563 0.914063 0.0
vt -0.103516 0.009766 0.0
vt -0.064453 0.927734 0.0
vt 2.724609 0.919922 0.0
vt -0.103516 0.009766 0.0
vt 2.724609 0.919922 0.0
vt 2.916016 -0.001953 0.0
vt 0.005859 -0.011719 0.0
vt 1.791016 0.929688 0.0
vt 1.906250 0.005859 0.0
vt 0.005859 -0.011719 0.0
vt -0.066406 0.958984 0.0
vt 1.791016 0.929688 0.0
vt -0.169922 -0.027344 0.0
vt 0.000000 0.966797 0.0
vt 3.001953 0.966797 0.0
vt -0.169922 -0.027344 0.0
vt 3.001953 0.966797 0.0
vt 2.941406 -0.029297 0.0
vt -0.267578 0.005859 0.0
vt 7.095703 0.914063 0.0
vt 7.091797 0.005859 0.0
vt -0.242188 0.015625 0.0
vt 1.726563 0.914063 0.0
vt 1.710938 0.000000 0.0
vt -0.193359 0.003906 0.0
vt 2.542969 0.914063 0.0
vt 2.564453 0.003906 0.0
vt -0.193359 0.003906 0.0
vt 0.000000 0.914063 0.0
vt 2.542969 0.914063 0.0
vt -0.175781 0.013672 0.0
vt 1.222656 0.914063 0.0
vt 1.265625 0.003906 0.0
vt -0.175781 0.013672 0.0
vt 0.000000 0.914063 0.0
vt 1.222656 0.914063 0.0
vt -0.267578 0.005859 0.0
vt 0.000000 0.914063 0.0
vt 7.095703 0.914063 0.0
vt -0.398438 0.005859 0.0
vt 10.623047 0.986328 0.0
vt 10.947266 0.042969 0.0
vt -0.398438 0.005859 0.0
vt -0.085938 0.955078 0.0
vt 10.623047 0.986328 0.0
vt 0.130859 0.849609 0.0
vt 0.664063 0.162109 0.0
vt 0.792969 0.240234 0.0
vt 0.130859 0.849609 0.0
vt 0.398438 0.218750 0.0
vt 0.664063 0.162109 0.0
vt 0.130859 0.849609 0.0
vt 0.792969 0.240234 0.0
vt 0.830078 0.490234 0.0
vt 0.130859 0.849609 0.0
vt 0.830078 0.490234 0.0
vt 0.746094 0.642578 0.0
vt 0.130859 0.849609 0.0
vt 0.035156 0.179688 0.0
vt 0.275391 0.097656 0.0
vt 0.130859 0.849609 0.0
vt 0.275391 0.097656 0.0
vt 0.398438 0.218750 0.0

# normals:
vn 0.294723 0.317065 0.901448
vn 0.571635 0.578839 -0.581531
vn 0.663610 0.335689 -0.668531
vn 0.294723 0.317065 0.901448
vn 0.567902 0.590790 0.573110
vn 0.571635 0.578839 -0.581531
vn 0.663610 0.335689 -0.668531
vn 0.571635 0.578839 -0.581531
vn 0.586693 -0.574932 -0.570302
vn 0.663610 0.335689 -0.668531
vn 0.586693 -0.574932 -0.570302
vn 0.007817 -0.455818 -0.890039
vn 0.003252 -0.438488 0.898731
vn 0.567902 0.590790 0.573110
vn 0.294723 0.317065 0.901448
vn 0.003252 -0.438488 0.898731
vn 0.582969 -0.564530 0.584340
vn 0.567902 0.590790 0.573110
vn 0.582969 -0.564530 0.584340
vn 0.571635 0.578839 -0.581531
vn 0.567902 0.590790 0.573110
vn 0.582969 -0.564530 0.584340
vn 0.586693 -0.574932 -0.570302
vn 0.571635 0.578839 -0.581531
vn 0.999890 0.014636 0.002446
vn 0.999890 0.014636 0.002446
vn 0.999890 0.014636 0.002446
vn 0.283432 0.888477 0.360936
vn 0.998583 0.008800 -0.052478
vn 0.999618 0.011721 -0.025022
vn 0.999618 0.011721 -0.025022
vn 0.999890 0.014632 0.002453
vn 0.999890 0.014632 0.002453
vn 0.999890 0.014632 0.002453
vn 0.999890 0.014645 0.002448
vn 0.999890 0.014645 0.002448
vn 0.999890 0.014645 0.002448
vn 0.999890 0.014644 0.002454
vn 0.999890 0.014636 0.002446
vn -0.002264 0.317585 -0.948227
vn -0.002289 0.319291 -0.947654
vn -0.287807 0.357800 -0.888339
vn 0.999890 0.014636 0.002446
vn 0.999890 0.014656 0.002433
vn 0.999849 0.017404 0.000329
vn 0.999849 0.017404 0.000329
vn 0.999795 0.020151 -0.001774
vn 0.711699 0.244570 -0.658536
vn 0.711699 0.244570 -0.658536
vn 0.021707 0.330880 -0.943423
vn 0.009735 0.323412 -0.946208
vn 0.009735 0.323412 -0.946208
vn -0.002238 0.315877 -0.948797
vn -0.002264 0.317585 -0.948227
vn -0.999890 -0.014648 -0.002458
vn -0.999890 -0.014648 -0.002458
vn -0.999890 -0.014648 -0.002458
vn -0.287807 0.357800 -0.888339
vn -0.548424 0.365351 -0.752164
vn -0.736772 0.303533 -0.604181
vn -0.736772 0.303533 -0.604181
vn -0.880033 0.223141 -0.419226
vn -0.747126 0.277011 -0.604208
vn -0.747126 0.277011 -0.604208
vn -0.573289 0.315706 -0.756089
vn -0.353643 0.382330 -0.853675
vn -0.353643 0.382330 -0.853675
vn -0.111998 0.425171 -0.898157
vn -0.103903 0.429763 -0.896944
vn -0.103903 0.429763 -0.896944
vn -0.095799 0.434318 -0.895651
vn -0.102277 0.433753 -0.895208
vn -0.922774 0.150221 -0.354855
vn -0.999890 -0.014663 -0.002450
vn -0.999890 -0.014648 -0.002458
vn -0.703505 0.287389 -0.649991
vn -0.700486 0.291471 -0.651433
vn -0.922774 0.150221 -0.354855
vn -0.432107 0.379748 -0.817970
vn -0.706504 0.283300 -0.648532
vn -0.703505 0.287389 -0.649991
vn -0.102277 0.433753 -0.895208
vn -0.108750 0.433169 -0.894728
vn -0.432107 0.379748 -0.817970
vn -0.154549 -0.457453 0.875701
vn -0.286459 -0.754392 -0.590622
vn 0.007817 -0.455818 -0.890039
vn -0.154549 -0.457453 0.875701
vn 0.007817 -0.455818 -0.890039
vn 0.003252 -0.438488 0.898731
vn 0.007817 -0.455818 -0.890039
vn 0.582969 -0.564530 0.584340
vn 0.003252 -0.438488 0.898731
vn 0.007817 -0.455818 -0.890039
vn 0.586693 -0.574932 -0.570302
vn 0.582969 -0.564530 0.584340
vn -0.154549 -0.457453 0.875701
vn -0.323848 -0.746235 -0.581597
vn -0.286459 -0.754392 -0.590622
vn -0.154549 -0.457453 0.875701
vn -0.366786 -0.479260 -0.797357
vn -0.323848 -0.746235 -0.581597
vn -0.154549 -0.457453 0.875701
vn -0.800743 -0.491631 -0.342214
vn -0.366786 -0.479260 -0.797357
vn -0.154549 -0.457453 0.875701
vn -0.795899 -0.343650 0.498447
vn -0.800743 -0.491631 -0.342214
vn 0.663610 0.335689 -0.668531
vn -0.014837 0.445610 0.895104
vn -0.879124 0.476169 -0.020118
vn 0.663610 0.335689 -0.668531
vn -0.879124 0.476169 -0.020118
vn 0.283432 0.888477 0.360936
vn 0.663610 0.335689 -0.668531
vn 0.283432 0.888477 0.360936
vn 0.294723 0.317065 0.901448
vn -0.323848 -0.746235 -0.581597
vn 0.077243 0.448249 0.890565
vn 0.736772 0.422172 0.528145
vn -0.323848 -0.746235 -0.581597
vn -0.366786 -0.479260 -0.797357
vn 0.077243 0.448249 0.890565
vn -0.286459 -0.754392 -0.590622
vn -0.323848 -0.746235 -0.581597
vn 0.736772 0.422172 0.528145
vn -0.286459 -0.754392 -0.590622
vn 0.736772 0.422172 0.528145
vn -0.014837 0.445610 0.895104
vn 0.663610 0.335689 -0.668531
vn 0.007817 -0.455818 -0.890039
vn -0.286459 -0.754392 -0.590622
vn 0.663610 0.335689 -0.668531
vn -0.286459 -0.754392 -0.590622
vn -0.014837 0.445610 0.895104
vn 0.012903 -0.999836 0.012731
vn 0.474511 -0.319601 0.820179
vn -0.938372 -0.345612 0.003241
vn 0.004952 -0.999959 0.007657
vn 0.476122 -0.337613 -0.811989
vn 0.472185 -0.322195 0.820507
vn 0.004952 -0.999959 0.007657
vn 0.472185 -0.322195 0.820507
vn -0.938369 -0.345636 0.000641
vn 0.004952 -0.999959 0.007657
vn -0.938369 -0.345636 0.000641
vn 0.476122 -0.337613 -0.811989
vn 0.012903 -0.999836 0.012731
vn 0.476094 -0.337611 -0.812006
vn 0.474511 -0.319601 0.820179
vn -0.795899 -0.343650 0.498447
vn 0.002725 0.949073 0.315043
vn 0.837434 0.546429 0.010924
vn 0.012903 -0.999836 0.012731
vn -0.938372 -0.345612 0.003241
vn 0.476094 -0.337611 -0.812006
vn 0.006696 -0.999949 0.007607
vn 0.477019 -0.336127 -0.812079
vn 0.473094 -0.320668 0.820582
vn 0.006696 -0.999949 0.007607
vn 0.473094 -0.320668 0.820582
vn -0.937263 -0.348624 0.000672
vn 0.006696 -0.999949 0.007607
vn -0.937263 -0.348624 0.000672
vn 0.477019 -0.336127 -0.812079
vn -0.366786 -0.479260 -0.797357
vn 0.587714 0.476490 0.653873
vn 0.077243 0.448249 0.890565
vn -0.795899 -0.343650 0.498447
vn -0.154549 -0.457453 0.875701
vn 0.002725 0.949073 0.315043
vn -0.800743 -0.491631 -0.342214
vn 0.837434 0.546429 0.010924
vn 0.587714 0.476490 0.653873
vn -0.800743 -0.491631 -0.342214
vn -0.795899 -0.343650 0.498447
vn 0.837434 0.546429 0.010924
vn -0.154549 -0.457453 0.875701
vn 0.283432 0.888477 0.360936
vn 0.002725 0.949073 0.315043
vn -0.154549 -0.457453 0.875701
vn 0.294723 0.317065 0.901448
vn 0.283432 0.888477 0.360936
vn -0.154549 -0.457453 0.875701
vn 0.003252 -0.438488 0.898731
vn 0.294723 0.317065 0.901448
vn -0.366786 -0.479260 -0.797357
vn -0.800743 -0.491631 -0.342214
vn 0.587714 0.476490 0.653873
vn 0.283432 0.888477 0.360936
vn -0.014243 0.910194 0.413938
vn -0.014291 0.910013 0.414334
vn 0.283432 0.888477 0.360936
vn -0.013390 0.913435 0.406764
vn 0.002725 0.949073 0.315043
vn 0.283432 0.888477 0.360936
vn -0.014291 0.910013 0.414334
vn -0.013390 0.913435 0.406764
vn 0.283432 0.888477 0.360936
vn -0.015459 0.909537 0.415335
vn -0.015642 0.909637 0.415109
vn 0.283432 0.888477 0.360936
vn -0.015642 0.909637 0.415109
vn -0.014243 0.910194 0.413938
vn 0.283432 0.888477 0.360936
vn -0.014286 0.909756 0.414898
vn -0.015459 0.909537 0.415335
vn 0.587714 0.476490 0.653873
vn 0.701410 0.689459 0.180751
vn 0.384947 0.669919 0.634842
vn -0.014837 0.445610 0.895104
vn 0.420271 0.684421 0.595768
vn -0.375635 0.573280 0.728182
vn -0.014837 0.445610 0.895104
vn -0.375635 0.573280 0.728182
vn -0.879124 0.476169 -0.020118
vn 0.736772 0.422172 0.528145
vn 0.420271 0.684421 0.595768
vn -0.014837 0.445610 0.895104
vn 0.736772 0.422172 0.528145
vn 0.257070 0.678354 0.688296
vn 0.420271 0.684421 0.595768
vn 0.077243 0.448249 0.890565
vn 0.384947 0.669919 0.634842
vn 0.257070 0.678354 0.688296
vn 0.077243 0.448249 0.890565
vn 0.257070 0.678354 0.688296
vn 0.736772 0.422172 0.528145
vn 0.283432 0.888477 0.360936
vn 0.226193 0.462565 -0.857246
vn 0.002725 0.949073 0.315043
vn 0.587714 0.476490 0.653873
vn 0.384947 0.669919 0.634842
vn 0.077243 0.448249 0.890565
vn 0.837434 0.546429 0.010924
vn 0.701410 0.689459 0.180751
vn 0.587714 0.476490 0.653873
vn 0.837434 0.546429 0.010924
vn 0.746617 0.490602 -0.449302
vn 0.701410 0.689459 0.180751
vn 0.002725 0.949073 0.315043
vn 0.746617 0.490602 -0.449302
vn 0.837434 0.546429 0.010924
vn 0.002725 0.949073 0.315043
vn 0.226193 0.462565 -0.857246
vn 0.746617 0.490602 -0.449302
vn 0.283432 0.888477 0.360936
vn -0.404436 0.890172 -0.209820
vn 0.226193 0.462565 -0.857246
vn -0.879124 0.476169 -0.020118
vn -0.404436 0.890172 -0.209820
vn 0.283432 0.888477 0.360936
vn -0.879124 0.476169 -0.020118
vn -0.375635 0.573280 0.728182
vn -0.404436 0.890172 -0.209820
vn -0.404436 0.890172 -0.209820
vn 0.384947 0.669919 0.634842
vn 0.701410 0.689459 0.180751
vn -0.404436 0.890172 -0.209820
vn 0.257070 0.678354 0.688296
vn 0.384947 0.669919 0.634842
vn -0.404436 0.890172 -0.209820
vn 0.701410 0.689459 0.180751
vn 0.746617 0.490602 -0.449302
vn -0.404436 0.890172 -0.209820
vn 0.746617 0.490602 -0.449302
vn 0.226193 0.462565 -0.857246
vn -0.404436 0.890172 -0.209820
vn -0.375635 0.573280 0.728182
vn 0.420271 0.684421 0.595768
vn -0.404436 0.890172 -0.209820
vn 0.420271 0.684421 0.595768
vn 0.257070 0.678354 0.688296

# triangles:
g 1
usemtl 1
s 0
f 5/1/1 39/2/2 3/3/3
f 5/4/4 40/5/5 39/6/6
g 2
usemtl 2
f 3/7/7 39/8/8 42/9/9
f 3/10/10 42/11/11 11/12/12
f 30/13/13 40/14/14 5/15/15
f 30/16/16 41/17/17 40/18/18
g 3
usemtl 3
f 41/19/19 39/20/20 40/21/21
f 41/22/22 42/23/23 39/24/24
g 4
usemtl 4
f 51/25/25 49/26/26 50/27/27
f 4/28/28 52/29/29 53/30/30
f 53/31/31 54/32/32 55/33/33
f 55/34/34 56/35/35 57/36/36
f 57/37/37 58/38/38 51/39/39
f 61/40/40 59/41/41 60/42/42
f 50/43/43 62/44/44 63/45/45
f 63/46/46 64/47/47 65/48/48
f 65/49/49 66/50/50 67/51/51
f 67/52/52 68/53/53 61/54/54
f 71/55/55 69/56/56 70/57/57
f 60/58/58 72/59/59 73/60/60
f 73/61/61 74/62/62 75/63/63
f 75/64/64 76/65/65 77/66/66
f 77/67/67 78/68/68 79/69/69
f 79/70/70 80/71/71 81/72/72
f 83/73/73 82/74/74 71/75/75
f 85/76/76 84/77/77 83/78/78
f 87/79/79 86/80/80 85/81/81
f 81/82/82 88/83/83 87/84/84
g 5
usemtl 5
f 28/85/85 10/86/86 11/87/87
f 28/88/88 11/89/89 30/90/90
f 11/91/91 41/92/92 30/93/93
f 11/94/94 42/95/95 41/96/96
f 28/97/97 8/98/98 10/99/99
f 28/100/100 9/101/101 8/102/102
f 28/103/103 29/104/104 9/105/105
f 28/106/106 22/107/107 29/108/108
f 3/109/109 1/110/110 2/111/111
f 3/112/112 2/113/113 4/114/114
f 3/115/115 4/116/116 5/117/117
f 8/118/118 6/119/119 7/120/120
f 8/121/121 9/122/122 6/123/123
f 10/124/124 8/125/125 7/126/126
f 10/127/127 7/128/128 1/129/129
f 3/130/130 11/131/131 10/132/132
f 3/133/133 10/134/134 1/135/135
f 14/136/136 12/137/137 13/138/138
f 17/139/139 15/140/140 16/141/141
f 17/142/142 16/143/143 18/144/144
f 17/145/145 18/146/146 15/147/147
f 14/148/148 19/149/149 12/150/150
f 22/151/151 20/152/152 21/153/153
f 14/154/154 13/155/155 19/156/156
f 25/157/157 23/158/158 24/159/159
f 25/160/160 24/161/161 26/162/162
f 25/163/163 26/164/164 23/165/165
f 9/166/166 27/167/167 6/168/168
f 22/169/169 28/170/170 20/171/171
f 29/172/172 21/173/173 27/174/174
f 29/175/175 22/176/176 21/177/177
f 28/178/178 4/179/179 20/180/180
f 28/181/181 5/182/182 4/183/183
f 28/184/184 30/185/185 5/186/186
f 9/187/187 29/188/188 27/189/189
f 4/190/190 43/191/191 44/192/192
f 4/193/193 45/194/194 20/195/195
f 4/196/196 44/197/197 45/198/198
f 4/199/199 46/200/200 47/201/201
f 4/202/202 47/203/203 43/204/204
f 4/205/205 48/206/206 46/207/207
g 6
usemtl 6
f 27/208/208 31/209/209 32/210/210
f 1/211/211 33/212/212 34/213/213
f 1/214/214 34/215/215 2/216/216
f 7/217/217 33/218/218 1/219/219
f 7/220/220 35/221/221 33/222/222
f 6/223/223 32/224/224 35/225/225
f 6/226/226 35/227/227 7/228/228
f 4/229/229 36/230/230 20/231/231
f 27/232/232 32/233/233 6/234/234
f 21/235/235 31/236/236 27/237/237
f 21/238/238 37/239/239 31/240/240
f 20/241/241 37/242/242 21/243/243
f 20/244/244 36/245/245 37/246/246
f 4/247/247 38/248/248 36/249/249
f 2/250/250 38/251/251 4/252/252
f 2/253/253 34/254/254 38/255/255
f 38/256/256 32/257/257 31/258/258
f 38/259/259 35/260/260 32/261/261
f 38/262/262 31/263/263 37/264/264
f 38/265/265 37/266/266 36/267/267
f 38/268/268 34/269/269 33/270/270
f 38/271/271 33/272/272 35/273/273

g