# Noesis .obj export.
#
mtllib mat01a.mtl
g
v  80.500496 1.195951 44.143593
v  82.031479 1.151205 43.578625
v  82.737907 1.106459 42.162350
v  47.712334 1.843671 18.993612
v  37.849220 1.237861 50.084614
v  79.672310 1.619276 13.747825
v  52.963596 5.619839 11.002094
v  34.385399 4.941779 25.242853
v  40.444965 7.090329 1.295391
v  28.962078 2.941615 51.780731
v  28.538630 2.388481 25.721704
v  79.512054 4.325651 10.535071
v  78.875946 4.307963 7.518028
v  59.034424 1.826370 -2.696999
v  20.901350 1.503478 52.102749
v  77.604362 1.624991 3.389771
v  1.883873 1.272349 51.522064
v  30.095819 4.315641 -2.302784
v  14.469591 1.477813 -14.455734
v  -10.184071 2.254453 26.099781
v  77.224907 1.265075 -2.276154
v  77.130348 3.519939 -9.341766
v  60.458649 1.478035 -14.269927
v  -12.116123 2.569967 50.458855
v  77.375854 3.653345 -12.793830
v  -15.404089 1.998205 -16.410463
v  -25.812107 1.331691 10.644768
v  -18.903856 3.998480 33.684326
v  -5.567356 1.205679 -49.090065
v  11.892596 2.797796 -48.303608
v  20.506813 4.044198 -13.840675
v  -21.260626 1.329099 48.475258
v  79.040619 2.317971 -17.922493
v  -16.563354 1.771793 -49.204655
v  -26.586723 4.170684 -16.798496
v  -22.560303 5.279533 -49.128647
v  -32.196415 1.444297 -4.229069
v  -32.354439 4.490049 14.702344
v  -53.578949 1.339009 42.772388
v  -41.377945 1.256184 17.476645
v  22.437363 1.291242 -46.938011
v  -43.647930 4.550238 -2.808933
v  -33.086174 1.363263 -26.220295
v  -25.501295 5.997045 -49.359070
v  -28.392797 5.519591 -49.723450
v  -71.296722 1.212706 6.820045
v  -54.477428 3.135343 24.884834
v  -51.963902 1.551705 -10.728988
v  -65.659561 1.418081 30.053833
v  -87.820984 1.178200 34.106636
v  -76.104172 4.679348 14.968657
v  -35.104866 1.856646 -51.959145
v  -47.264977 1.207085 -53.132553
v  -58.512180 2.861801 -17.895592
v  -84.602531 1.926659 -8.626358
v  -85.635796 1.840573 1.750824
v  -84.972801 5.061494 10.124672
v  -88.884766 1.259465 32.831615
v  -86.751190 1.462927 20.316200
v  -85.457474 5.007279 13.738258
v  -88.644638 1.218833 33.728508
v  -77.948059 1.141693 -54.977409
v  -82.841042 3.920903 -17.228348
v  -82.005760 1.942375 -23.901340
v  -79.819420 1.284123 -53.868526
v  -79.249496 1.212908 -54.965424
v  80.257294 1.436364 -23.914650
v  53.041927 4.454021 -20.459343
v  65.525612 1.260811 -45.805557
v  82.942780 1.143643 -41.671066
v  34.958042 1.637077 -15.151936
v  41.371567 3.649555 -44.687790
v  51.201271 1.266759 -45.869194
v  81.142685 1.144256 -43.749985
v  82.585876 1.143950 -43.166275
v  37.280579 3.659187 -44.869911
v  31.644541 1.896905 -45.772163

vt  0.156128 -0.979492 0.000000
vt  0.162720 -0.987793 0.000000
vt  0.176758 -0.991211 0.000000
vt  0.367188 -0.779785 0.000000
vt  0.064514 -0.738770 0.000000
vt  0.443359 -0.959473 0.000000
vt  0.447266 -0.805664 0.000000
vt  0.296875 -0.706543 0.000000
vt  0.528809 -0.729492 0.000000
vt  0.041077 -0.688965 0.000000
vt  0.287598 -0.673340 0.000000
vt  0.473877 -0.957031 0.000000
vt  0.501953 -0.951660 0.000000
vt  0.582031 -0.833496 0.000000
vt  0.031342 -0.643066 0.000000
vt  0.539551 -0.942383 0.000000
vt  0.021088 -0.534180 0.000000
vt  0.554199 -0.668457 0.000000
vt  0.656738 -0.573242 0.000000
vt  0.251953 -0.452881 0.000000
vt  0.593262 -0.937500 0.000000
vt  0.660156 -0.933594 0.000000
vt  0.692871 -0.835938 0.000000
vt  0.019562 -0.453857 0.000000
vt  0.692871 -0.933105 0.000000
vt  0.650391 -0.401855 0.000000
vt  0.385498 -0.355957 0.000000
vt  0.172852 -0.406738 0.000000
vt  0.968262 -0.441650 0.000000
vt  0.975098 -0.541504 0.000000
vt  0.655762 -0.607910 0.000000
vt  0.030777 -0.400635 0.000000
vt  0.743164 -0.939941 0.000000
vt  0.959961 -0.378662 0.000000
vt  0.644531 -0.337646 0.000000
vt  0.954590 -0.344482 0.000000
vt  0.520996 -0.312012 0.000000
vt  0.341553 -0.320557 0.000000
vt  0.058014 -0.213379 0.000000
vt  0.307861 -0.270508 0.000000
vt  0.971191 -0.602539 0.000000
vt  0.498047 -0.247314 0.000000
vt  0.728516 -0.295898 0.000000
vt  0.954102 -0.327637 0.000000
vt  0.955078 -0.311035 0.000000
vt  0.384033 -0.094360 0.000000
vt  0.226807 -0.199341 0.000000
vt  0.566406 -0.195923 0.000000
vt  0.168457 -0.138062 0.000000
vt  0.111755 -0.013664 0.000000
vt  0.302734 -0.070984 0.000000
vt  0.970703 -0.271484 0.000000
vt  0.972168 -0.201538 0.000000
vt  0.628418 -0.154907 0.000000
vt  0.519043 -0.010696 0.000000
vt  0.420166 -0.009979 0.000000
vt  0.341309 -0.017944 0.000000
vt  0.122925 -0.006958 0.000000
vt  0.243286 -0.012886 0.000000
vt  0.306641 -0.016983 0.000000
vt  0.114624 -0.008774 0.000000
vt  0.963867 -0.025528 0.000000
vt  0.602051 -0.016449 0.000000
vt  0.666016 -0.017883 0.000000
vt  0.952148 -0.015404 0.000000
vt  0.962891 -0.018112 0.000000
vt  0.800781 -0.943848 0.000000
vt  0.745605 -0.790527 0.000000
vt  0.996094 -0.849121 0.000000
vt  0.971191 -0.950684 0.000000
vt  0.680176 -0.689941 0.000000
vt  0.965332 -0.711426 0.000000
vt  0.984863 -0.767090 0.000000
vt  0.989258 -0.938965 0.000000
vt  0.985352 -0.947754 0.000000
vt  0.963867 -0.687988 0.000000
vt  0.967773 -0.655762 0.000000

vn  0.000000 0.999969 0.007874
vn  0.015742 0.999597 -0.023613
vn  0.007874 0.999938 0.007874
vn  0.063125 0.994224 0.086797
vn  0.054992 0.997714 0.039280
vn  0.007901 0.995464 0.094806
vn  0.055404 0.989356 0.134552
vn  0.047445 0.996335 0.071167
vn  -0.047168 0.998392 -0.031445
vn  -0.023604 0.999226 0.031472
vn  -0.070689 0.997498 0.000000
vn  0.047486 0.910151 0.411546
vn  0.047156 0.966707 -0.251501
vn  0.102713 0.987625 -0.118515
vn  -0.047190 0.998855 0.007865
vn  0.126047 0.913839 -0.386018
vn  0.007872 0.999690 0.023615
vn  -0.188550 0.982032 -0.007856
vn  -0.047191 0.998886 0.000000
vn  0.007874 0.999938 -0.007874
vn  0.015729 0.990898 0.133693
vn  -0.055082 0.991481 0.118033
vn  0.134250 0.987133 0.086868
vn  0.055028 0.998361 0.015722
vn  -0.110487 0.978595 -0.173622
vn  0.047191 0.998886 0.000000
vn  0.047155 0.998114 -0.039296
vn  0.000000 0.999876 0.015746
vn  -0.007874 0.999969 0.000000
vn  -0.031480 0.999504 0.000000
vn  -0.039338 0.999195 0.007868
vn  -0.063070 0.985475 0.157676
vn  -0.086496 0.975049 -0.204446
vn  0.229452 0.973191 -0.015824
vn  -0.007862 0.998454 0.055033
vn  0.363197 0.931679 0.007896
vn  0.062860 0.997899 -0.015715
vn  -0.007872 0.999690 0.023615
vn  -0.047186 0.998762 0.015729
vn  -0.086903 0.995433 0.039501
vn  0.055297 0.995340 -0.078995
vn  -0.031479 0.999473 -0.007870
vn  -0.110428 0.993853 -0.007888
vn  0.015729 0.998762 0.047186
vn  -0.408601 0.911495 0.047146
vn  0.023589 0.998608 -0.047178
vn  0.062866 0.997991 -0.007858
vn  -0.062798 0.996914 -0.047098
vn  -0.039473 0.994720 0.094735
vn  -0.007872 0.999690 0.023615
vn  0.031477 0.999381 0.015738
vn  -0.196062 0.980309 0.023527
vn  0.000000 0.999504 -0.031480
vn  0.007874 0.999969 0.000000
vn  0.015811 0.996086 0.086960
vn  0.078490 0.988973 -0.125584
vn  0.149602 0.944853 -0.291330
vn  -0.007874 0.999938 0.007874
vn  -0.055279 0.987133 0.150044
vn  -0.007865 0.943829 0.330340
vn  0.023604 0.999226 0.031472
vn  0.000000 0.998886 -0.047191
vn  0.039320 0.998731 0.031456
vn  -0.023569 0.997745 -0.062850
vn  -0.015738 0.999381 -0.031477
vn  0.047155 0.998114 -0.039296
vn  0.062798 0.996914 -0.047098
vn  0.015742 0.999597 -0.023613
vn  0.047416 0.995744 -0.079027
vn  0.000000 0.999876 -0.015746
vn  -0.031383 0.996423 -0.078459
vn  0.023609 0.999442 -0.023609
vn  0.086868 0.987133 -0.134250
vn  0.000000 0.999969 -0.007874
vn  0.000000 1.000000 0.000000
vn  -0.188347 0.980973 0.047087
vn  -0.070654 0.997006 -0.031402

g LODGroup_1_MainMesh_1_Submesh_2
usemtl sm0015_mat_sm0015_mat_mt
f  1/1/1 2/2/2 3/3/3
f  1/1/1 3/3/3 4/4/4
f  4/4/4 5/5/5 1/1/1
f  4/4/4 3/3/3 6/6/6
f  4/4/4 6/6/6 7/7/7
f  4/4/4 8/8/8 5/5/5
f  4/4/4 7/7/7 9/9/9
f  8/8/8 4/4/4 9/9/9
f  8/8/8 10/10/10 5/5/5
f  11/11/11 8/8/8 9/9/9
f  10/10/10 8/8/8 11/11/11
f  6/6/6 12/12/12 7/7/7
f  7/7/7 12/12/12 13/13/13
f  9/9/9 7/7/7 14/14/14
f  14/14/14 7/7/7 13/13/13
f  15/15/15 10/10/10 11/11/11
f  16/16/16 14/14/14 13/13/13
f  17/17/17 15/15/15 11/11/11
f  18/18/18 11/11/11 9/9/9
f  11/11/11 18/18/18 19/19/19
f  20/20/20 11/11/11 19/19/19
f  20/20/20 17/17/17 11/11/11
f  16/16/16 21/21/21 14/14/14
f  14/14/14 21/21/21 22/22/22
f  23/23/23 9/9/9 14/14/14
f  23/23/23 14/14/14 22/22/22
f  24/24/24 17/17/17 20/20/20
f  25/25/25 23/23/23 22/22/22
f  19/19/19 26/26/26 20/20/20
f  20/20/20 26/26/26 27/27/27
f  20/20/20 27/27/27 28/28/28
f  28/28/28 24/24/24 20/20/20
f  19/19/19 29/29/29 26/26/26
f  29/29/29 19/19/19 30/30/30
f  19/19/19 18/18/18 31/31/31
f  19/19/19 31/31/31 30/30/30
f  32/32/32 24/24/24 28/28/28
f  25/25/25 33/33/33 23/23/23
f  29/29/29 34/34/34 26/26/26
f  26/26/26 35/35/35 27/27/27
f  36/36/36 35/35/35 26/26/26
f  34/34/34 36/36/36 26/26/26
f  37/37/37 27/27/27 35/35/35
f  27/27/27 38/38/38 28/28/28
f  38/38/38 27/27/27 37/37/37
f  39/39/39 32/32/32 28/28/28
f  28/28/28 38/38/38 40/40/40
f  39/39/39 28/28/28 40/40/40
f  31/31/31 41/41/41 30/30/30
f  42/42/42 38/38/38 37/37/37
f  40/40/40 38/38/38 42/42/42
f  43/43/43 37/37/37 35/35/35
f  37/37/37 43/43/43 42/42/42
f  36/36/36 44/44/44 35/35/35
f  35/35/35 45/45/45 43/43/43
f  35/35/35 44/44/44 45/45/45
f  46/46/46 40/40/40 42/42/42
f  47/47/47 39/39/39 40/40/40
f  40/40/40 46/46/46 47/47/47
f  48/48/48 42/42/42 43/43/43
f  46/46/46 42/42/42 48/48/48
f  49/49/49 39/39/39 47/47/47
f  50/50/50 39/39/39 49/49/49
f  46/46/46 51/51/51 47/47/47
f  51/51/51 49/49/49 47/47/47
f  45/45/45 52/52/52 43/43/43
f  43/43/43 52/52/52 53/53/53
f  54/54/54 43/43/43 53/53/53
f  43/43/43 54/54/54 48/48/48
f  55/55/55 48/48/48 54/54/54
f  48/48/48 55/55/55 46/46/46
f  55/55/55 56/56/56 46/46/46
f  46/46/46 56/56/56 57/57/57
f  51/51/51 46/46/46 57/57/57
f  50/50/50 49/49/49 58/58/58
f  49/49/49 51/51/51 59/59/59
f  49/49/49 59/59/59 58/58/58
f  57/57/57 60/60/60 51/51/51
f  51/51/51 60/60/60 59/59/59
f  50/50/50 58/58/58 61/61/61
f  54/54/54 53/53/53 62/62/62
f  63/63/63 55/55/55 54/54/54
f  64/64/64 63/63/63 54/54/54
f  54/54/54 65/65/65 64/64/64
f  62/62/62 65/65/65 54/54/54
f  62/62/62 66/66/66 65/65/65
f  23/23/23 33/33/33 67/67/67
f  23/23/23 67/67/67 68/68/68
f  68/68/68 9/9/9 23/23/23
f  67/67/67 69/69/69 68/68/68
f  67/67/67 70/70/70 69/69/69
f  71/71/71 9/9/9 68/68/68
f  72/72/72 71/71/71 68/68/68
f  73/73/73 72/72/72 68/68/68
f  68/68/68 69/69/69 73/73/73
f  9/9/9 71/71/71 18/18/18
f  69/69/69 70/70/70 74/74/74
f  74/74/74 70/70/70 75/75/75
f  72/72/72 76/76/76 71/71/71
f  71/71/71 76/76/76 77/77/77
f  71/71/71 31/31/31 18/18/18
f  31/31/31 71/71/71 77/77/77
f  41/41/41 31/31/31 77/77/77

g
