# Created by MKDS Course Modifier
mtllib Laptop.mtl
g polygon0
usemtl lambert3
v 0.3010254 0.4077148 -0.4675293
v -0.3010254 0.4077148 -0.4675293
v -0.3010254 0.05639648 -0.248291
v 0.3010254 0.05639648 -0.248291
vn 0 0.5292969 0.8476563
vn 0 0.5292969 0.8476563
vn 0 0.5292969 0.8476563
vn 0 0.5292969 0.8476563
vt 0.5 0
vt 0 0
vt 0 -0.46875
vt 0.5 -0.46875
f 1/1/1 2/2/2 3/3/3 4/4/4
g polygon1
usemtl lambert2
v 0.3493652 0.4309082 -0.4929199
v -0.3493652 0.4309082 -0.4929199
v -0.3493652 0.435791 -0.4851074
v 0.3493652 0.435791 -0.4851074
v 0.3493652 0.02807617 -0.2307129
v -0.3493652 0.02807617 -0.2307129
v -0.3493652 0.01318359 -0.2546387
v 0.3493652 0.01318359 -0.2546387
v 0.3493652 0.01318359 -0.2546387
v -0.3493652 0.01318359 -0.2546387
v -0.3493652 0.4309082 -0.4929199
v 0.3493652 0.4309082 -0.4929199
v -0.3493652 0.4309082 -0.4929199
v -0.3493652 0.01318359 -0.2546387
v -0.3493652 0.02807617 -0.2307129
v -0.3493652 0.435791 -0.4851074
v 0.3493652 0.01318359 -0.2546387
v 0.3493652 0.4309082 -0.4929199
v 0.3493652 0.435791 -0.4851074
v 0.3493652 0.02807617 -0.2307129
v 0.3493652 0.435791 -0.4851074
v -0.3493652 0.435791 -0.4851074
v -0.3010254 0.4077148 -0.4675293
v 0.3010254 0.4077148 -0.4675293
v -0.3493652 0.435791 -0.4851074
v -0.3493652 0.02807617 -0.2307129
v -0.3010254 0.05639648 -0.248291
v -0.3010254 0.4077148 -0.4675293
v -0.3493652 0.02807617 -0.2307129
v 0.3493652 0.02807617 -0.2307129
v 0.3010254 0.05639648 -0.248291
v -0.3010254 0.05639648 -0.248291
v 0.3493652 0.02807617 -0.2307129
v 0.3493652 0.435791 -0.4851074
v 0.3010254 0.4077148 -0.4675293
v 0.3010254 0.05639648 -0.248291
v 0.3493652 0 -0.2368164
v -0.3493652 0 -0.2368164
v -0.3493652 0.02832031 -0.2368164
v 0.3493652 0.02832031 -0.2368164
v 0.3493652 0.02832031 -0.2368164
v -0.3493652 0.02832031 -0.2368164
v -0.3493652 0.02832031 0.2436523
v 0.3493652 0.02832031 0.2436523
v 0.3493652 0.02832031 0.2436523
v -0.3493652 0.02832031 0.2436523
v -0.3493652 0.01611328 0.2436523
v 0.3493652 0.01611328 0.2436523
v 0.3493652 0.01611328 0.2436523
v -0.3493652 0.01611328 0.2436523
v -0.3493652 0 -0.2368164
v 0.3493652 0 -0.2368164
v -0.3493652 0 -0.2368164
v -0.3493652 0.01611328 0.2436523
v -0.3493652 0.02832031 0.2436523
v -0.3493652 0.02832031 -0.2368164
v 0.3493652 0.01611328 0.2436523
v 0.3493652 0 -0.2368164
v 0.3493652 0.02832031 -0.2368164
v 0.3493652 0.02832031 0.2436523
vn 0.5683594 0.1992188 -0.796875
vn -0.5683594 0.1992188 -0.796875
vn -0.4082031 0.7792969 0.4765625
vn 0.4082031 0.7792969 0.4765625
vn 0.4082031 0.0859375 0.9082031
vn -0.4082031 0.0859375 0.9082031
vn -0.5859375 -0.7871094 -0.1992188
vn 0.5859375 -0.7871094 -0.1992188
vn 0.5859375 -0.7871094 -0.1992188
vn -0.5859375 -0.7871094 -0.1992188
vn -0.5683594 0.1992188 -0.796875
vn 0.5683594 0.1992188 -0.796875
vn -0.5683594 0.1992188 -0.796875
vn -0.5859375 -0.7871094 -0.1992188
vn -0.4082031 0.0859375 0.9082031
vn -0.4082031 0.7792969 0.4765625
vn 0.5859375 -0.7871094 -0.1992188
vn 0.5683594 0.1992188 -0.796875
vn 0.4082031 0.7792969 0.4765625
vn 0.4082031 0.0859375 0.9082031
vn 0.4082031 0.7792969 0.4765625
vn -0.4082031 0.7792969 0.4765625
vn 0 0.5292969 0.8476563
vn 0 0.5292969 0.8476563
vn -0.4082031 0.7792969 0.4765625
vn -0.4082031 0.0859375 0.9082031
vn 0 0.5292969 0.8476563
vn 0 0.5292969 0.8476563
vn -0.4082031 0.0859375 0.9082031
vn 0.4082031 0.0859375 0.9082031
vn 0 0.5292969 0.8476563
vn 0 0.5292969 0.8476563
vn 0.4082031 0.0859375 0.9082031
vn 0.4082031 0.7792969 0.4765625
vn 0 0.5292969 0.8476563
vn 0 0.5292969 0.8476563
vn 0.5839844 -0.5839844 -0.5644531
vn -0.5839844 -0.5839844 -0.5644531
vn -0.578125 0.578125 -0.578125
vn 0.578125 0.578125 -0.578125
vn 0.578125 0.578125 -0.578125
vn -0.578125 0.578125 -0.578125
vn -0.578125 0.578125 0.578125
vn 0.578125 0.578125 0.578125
vn 0.578125 0.578125 0.578125
vn -0.578125 0.578125 0.578125
vn -0.5703125 -0.5703125 0.5898438
vn 0.5703125 -0.5703125 0.5898438
vn 0.5703125 -0.5703125 0.5898438
vn -0.5703125 -0.5703125 0.5898438
vn -0.5839844 -0.5839844 -0.5644531
vn 0.5839844 -0.5839844 -0.5644531
vn -0.5839844 -0.5839844 -0.5644531
vn -0.5703125 -0.5703125 0.5898438
vn -0.578125 0.578125 0.578125
vn -0.578125 0.578125 -0.578125
vn 0.5703125 -0.5703125 0.5898438
vn 0.5839844 -0.5839844 -0.5644531
vn 0.578125 0.578125 -0.578125
vn 0.578125 0.578125 0.578125
vt -1.725098 0.1826172
vt -1.725098 -0.1826172
vt -1.5 -0.1826172
vt -1.5 0.1826172
vt -1.725098 0.1826172
vt -1.725098 -0.1826172
vt -1.5 -0.1826172
vt -1.5 0.1826172
vt 0.2749023 0.5
vt 0.5 0.5
vt 0.5 0.8144531
vt 0.2749023 0.8144531
vt 0.5 -0.1748047
vt 0.2749023 -0.1748047
vt 0.2749023 0.1748047
vt 0.5 0.1748047
vt 0.2749023 -0.1748047
vt 0.5 -0.1748047
vt 0.5 0.1748047
vt 0.2749023 0.1748047
vt -0.5024414 -0.1757813
vt -0.5024414 0.1757813
vt -0.5214844 0.1513672
vt -0.5214844 -0.1513672
vt -0.5024414 0.1757813
vt -0.722168 0.1757813
vt -0.7036133 0.1513672
vt -0.5214844 0.1513672
vt -0.722168 0.1757813
vt -0.722168 -0.1757813
vt -0.7036133 -0.1513672
vt -0.7036133 0.1513672
vt -0.722168 -0.1757813
vt -0.5024414 -0.1757813
vt -0.5214844 -0.1513672
vt -0.7036133 -0.1513672
vt -0.7226563 0.1894531
vt -0.7226563 -0.1914063
vt -0.4995117 -0.1914063
vt -0.4995117 0.1894531
vt 0.2207031 0
vt -0.2207031 0
vt -0.2207031 -0.5
vt 0.2207031 -0.5
vt -0.7226563 0.1894531
vt -0.7226563 -0.1914063
vt -0.4995117 -0.1914063
vt -0.4995117 0.1894531
vt -0.7246094 -0.8183594
vt -0.7246094 -1.178711
vt -0.5019531 -1.178711
vt -0.5019531 -0.8183594
vt -0.2480469 0.5
vt -0.2480469 0.002929688
vt -0.2216797 0.002929688
vt -0.2216797 0.5
vt 0.7568359 0.5019531
vt 0.7568359 -0.0009765625
vt 0.7270508 -0.0009765625
vt 0.7270508 0.5019531
f 5/5/5 6/6/6 7/7/7 8/8/8
f 9/9/9 10/10/10 11/11/11 12/12/12
f 13/13/13 14/14/14 15/15/15 16/16/16
f 17/17/17 18/18/18 19/19/19 20/20/20
f 21/21/21 22/22/22 23/23/23 24/24/24
f 25/25/25 26/26/26 27/27/27 28/28/28
f 29/29/29 30/30/30 31/31/31 32/32/32
f 33/33/33 34/34/34 35/35/35 36/36/36
f 37/37/37 38/38/38 39/39/39 40/40/40
f 41/41/41 42/42/42 43/43/43 44/44/44
f 45/45/45 46/46/46 47/47/47 48/48/48
f 49/49/49 50/50/50 51/51/51 52/52/52
f 53/53/53 54/54/54 55/55/55 56/56/56
f 57/57/57 58/58/58 59/59/59 60/60/60
f 61/61/61 62/62/62 63/63/63 64/64/64
