# Blender v2.75 (sub 0) OBJ File: ''
# www.blender.org
mtllib Table.mtl
o polygon5
v -19.000000 0.499992 27.000000
v 19.000000 0.499992 27.000000
v -21.000000 0.499992 25.000000
v 21.000000 0.499992 25.000000
v -21.000000 0.500008 -25.000000
v 21.000000 0.500008 -25.000000
v -19.000000 0.500008 -27.000000
v 19.000000 0.500008 -27.000000
vt 0.000000 0.000000
vn 0.000000 1.000000 0.000000
usemtl table_l03_shade
s 1
f 1/1/1 2/1/1 3/1/1
f 3/1/1 2/1/1 4/1/1
f 3/1/1 4/1/1 5/1/1
f 5/1/1 4/1/1 6/1/1
f 5/1/1 6/1/1 7/1/1
f 7/1/1 6/1/1 8/1/1
o polygon0_polygon0.001
v 16.000000 15.999994 15.000006
v 19.000000 15.999994 16.000004
v 16.000000 16.000000 0.000006
v 19.000000 16.000000 0.000006
v 16.000000 16.000004 -14.999994
v 19.000000 16.000004 -15.999994
v 14.000000 16.000008 -17.999996
v 17.000000 16.000008 -18.999996
v 12.000000 16.000008 -19.999996
v 13.000000 16.000008 -22.999996
v -16.000000 16.000004 -14.999994
v -19.000000 16.000004 -15.999994
v -16.000000 16.000000 0.000006
v -19.000000 16.000000 0.000006
v -16.000000 15.999994 15.000006
v -19.000000 15.999994 16.000004
v -14.000000 15.999994 18.000004
v -17.000000 15.999994 19.000004
v -12.000000 15.999994 20.000004
v -13.000000 15.999992 23.000004
v 8.000000 16.000008 -21.999996
v 8.000000 16.000008 -25.999996
v -8.000000 16.000008 -21.999996
v -8.000000 16.000008 -25.999996
v -12.000000 16.000008 -19.999996
v -13.000000 16.000008 -22.999996
v -14.000000 16.000008 -17.999996
v -17.000000 16.000008 -18.999996
v -8.000000 15.999992 23.000004
v -8.000000 15.999992 26.000004
v 8.000000 15.999992 23.000004
v 8.000000 15.999992 26.000004
v 12.000000 15.999994 20.000004
v 13.000000 15.999992 23.000004
v 14.000000 15.999994 18.000004
v 17.000000 15.999994 19.000004
v -8.000000 15.999992 23.000004
v -12.000000 15.999994 20.000004
v -13.000000 15.999992 23.000004
v -8.000000 15.999992 26.000004
v -17.000000 16.000008 -18.999996
v -19.000000 16.000004 -15.999994
v -16.000000 16.000004 -14.999994
v -14.000000 16.000008 -17.999996
v 13.000000 16.000008 -22.999996
v 8.000000 16.000008 -25.999996
v 8.000000 16.000008 -21.999996
v 12.000000 16.000008 -19.999996
v 16.000000 15.999994 15.000006
v 14.000000 15.999994 18.000004
v 17.000000 15.999994 19.000004
v 19.000000 15.999994 16.000004
vt 0.000000 0.242188
vt 1.000000 0.046875
vt 0.000000 0.585938
vt 1.000000 0.625000
vt 0.000000 0.820312
vt 1.000000 0.960938
vt 0.945312 1.906250
vt 1.000000 1.906250
vt 0.875000 1.960938
vt 0.875000 2.000000
vt 1.000000 0.820312
vt 0.000000 0.960938
vt 1.000000 0.585938
vt 0.000000 0.625000
vt 1.000000 0.242188
vt 0.000000 0.046875
vt 0.062500 1.078125
vt 0.000000 1.078125
vt 0.140625 1.039062
vt 0.140625 1.000000
vt 0.656250 0.000000
vt 0.945312 1.000000
vt 0.406250 0.000000
vt 0.132812 1.000000
vt 0.140625 1.968750
vt 0.140625 2.000000
vt 0.054688 1.906250
vt 0.000000 1.906250
vt 0.296875 1.000000
vt 0.085938 0.000000
vt 0.625000 1.000000
vt 0.914062 0.000000
vt 0.875000 1.023438
vt 0.875000 1.000000
vt 0.968750 1.078125
vt 1.000000 1.078125
vt 0.257812 1.000000
vt 0.000000 1.000000
vt 1.000000 1.000000
vt 0.015625 1.812500
vt 1.000000 0.000000
vt 0.757812 2.000000
vt 0.976562 1.164062
vt 0.000000 0.000000
vn -0.000000 1.000000 0.000000
usemtl _04
s 1
f 9/2/2 10/3/2 11/4/2
f 11/4/2 10/3/2 12/5/2
f 11/4/2 12/5/2 13/6/2
f 13/6/2 12/5/2 14/7/2
f 13/6/2 14/7/2 15/8/2
f 15/8/2 14/7/2 16/9/2
f 15/8/2 16/9/2 17/10/2
f 17/10/2 16/9/2 18/11/2
f 19/12/2 20/13/2 21/14/2
f 21/14/2 20/13/2 22/15/2
f 21/14/2 22/15/2 23/16/2
f 23/16/2 22/15/2 24/17/2
f 23/16/2 24/17/2 25/18/2
f 25/18/2 24/17/2 26/19/2
f 25/18/2 26/19/2 27/20/2
f 27/20/2 26/19/2 28/21/2
f 29/22/2 30/23/2 31/24/2
f 31/24/2 30/23/2 32/25/2
f 31/24/2 32/25/2 33/26/2
f 33/26/2 32/25/2 34/27/2
f 33/26/2 34/27/2 35/28/2
f 35/28/2 34/27/2 36/29/2
f 37/30/2 38/31/2 39/32/2
f 39/32/2 38/31/2 40/33/2
f 39/32/2 40/33/2 41/34/2
f 41/34/2 40/33/2 42/35/2
f 41/34/2 42/35/2 43/36/2
f 43/36/2 42/35/2 44/37/2
f 45/38/2 46/20/2 47/39/2
f 47/39/2 48/31/2 45/38/2
f 49/40/2 50/13/2 51/41/2
f 51/41/2 52/28/2 49/40/2
f 53/42/2 54/23/2 55/43/2
f 55/43/2 56/10/2 53/42/2
f 57/44/2 58/36/2 59/45/2
f 59/45/2 60/3/2 57/44/2
o polygon4
v -8.000000 9.999992 26.000004
v 8.000000 9.999992 26.000004
v 8.000000 15.999992 26.000004
v -8.000000 15.999992 26.000004
vt 30.955078 31.140623
vt 32.044918 31.140623
vt 32.044918 32.210938
vt 30.955078 32.210938
vn 0.000000 0.000000 1.000000
usemtl _05
s 1
f 61/46/3 62/47/3 63/48/3
f 63/48/3 64/49/3 61/46/3
o polygon3
v -14.500000 12.000006 -20.207027
v -14.500000 1.000006 -20.207031
v -15.207031 12.000006 -19.499996
v -15.207031 1.000006 -19.500000
v -14.500000 12.000006 -17.792965
v -14.500000 1.000006 -17.792969
v -13.792969 12.000006 -19.499996
v -13.792969 1.000006 -19.500000
v -14.500000 1.000006 -17.792969
v -15.207031 1.000006 -19.500000
v -13.792969 1.000006 -19.500000
v -14.500000 1.000006 -20.207031
v -13.792969 12.000006 -19.499996
v -14.500000 12.000006 -20.207027
v -14.500000 12.000006 -17.792965
v -15.207031 12.000006 -19.499996
v 14.500000 12.000006 -20.207027
v 14.500000 1.000006 -20.207031
v 13.792969 12.000006 -19.499996
v 13.792969 1.000006 -19.500000
v 14.500000 12.000006 -17.792965
v 14.500000 1.000006 -17.792969
v 15.207031 12.000006 -19.499996
v 15.207031 1.000006 -19.500000
v 14.500000 1.000006 -17.792969
v 13.792969 1.000006 -19.500000
v 15.207031 1.000006 -19.500000
v 14.500000 1.000006 -20.207031
v 15.207031 12.000006 -19.499996
v 14.500000 12.000006 -20.207027
v 14.500000 12.000006 -17.792965
v 13.792969 12.000006 -19.499996
v 14.500000 11.999994 17.792973
v 14.500000 0.999994 17.792969
v 13.792969 11.999994 18.500004
v 13.792969 0.999994 18.500000
v 14.500000 11.999994 20.207035
v 14.500000 0.999994 20.207031
v 15.207031 11.999994 19.500004
v 15.207031 0.999994 19.500000
v 14.500000 0.999994 20.207031
v 13.792969 0.999994 18.500000
v 15.207031 0.999994 19.500000
v 14.500000 0.999994 17.792969
v 15.207031 11.999994 19.500004
v 14.500000 11.999994 17.792973
v 14.500000 11.999994 20.207035
v 13.792969 11.999994 18.500004
v -14.500000 11.999994 17.792973
v -14.500000 0.999994 17.792969
v -15.207031 11.999994 18.500004
v -15.207031 0.999994 18.500000
v -14.500000 11.999994 20.207035
v -14.500000 0.999994 20.207031
v -13.792969 11.999994 18.500004
v -13.792969 0.999994 18.500000
v -14.500000 0.999994 20.207031
v -15.207031 0.999994 18.500000
v -13.792969 0.999994 18.500000
v -14.500000 0.999994 17.792969
v -13.792969 11.999994 18.500004
v -14.500000 11.999994 17.792973
v -14.500000 11.999994 20.207035
v -15.207031 11.999994 18.500004
v 14.500000 4.000006 -21.000000
v 14.500000 1.000006 -21.000000
v 13.000000 4.000006 -19.500000
v 13.000000 1.000006 -19.500000
v 14.500000 4.000006 -17.000000
v 14.500000 1.000006 -17.000000
v 15.000000 4.000006 -18.500000
v 15.000000 1.000006 -18.500000
v 14.500000 1.000006 -17.000000
v 13.000000 1.000006 -19.500000
v 15.000000 1.000006 -18.500000
v 14.500000 1.000006 -21.000000
v 15.000000 4.000006 -18.500000
v 14.500000 4.000006 -21.000000
v 14.500000 4.000006 -17.000000
v 13.000000 4.000006 -19.500000
v -14.500000 4.000006 -21.000000
v -14.500000 1.000006 -21.000000
v -16.000000 4.000006 -18.500000
v -16.000000 1.000006 -18.500000
v -14.500000 4.000006 -17.000000
v -14.500000 1.000006 -17.000000
v -13.000000 4.000006 -19.500000
v -13.000000 1.000006 -19.500000
v -14.500000 1.000006 -17.000000
v -16.000000 1.000006 -18.500000
v -13.000000 1.000006 -19.500000
v -14.500000 1.000006 -21.000000
v -13.000000 4.000006 -19.500000
v -14.500000 4.000006 -21.000000
v -14.500000 4.000006 -17.000000
v -16.000000 4.000006 -18.500000
v -14.500000 3.999994 17.000000
v -14.500000 0.999994 17.000000
v -16.000000 3.999994 19.500000
v -16.000000 0.999994 19.500000
v -14.500000 3.999994 21.000000
v -14.500000 0.999994 21.000000
v -13.000000 3.999994 18.500000
v -13.000000 0.999994 18.500000
v -14.500000 0.999994 21.000000
v -16.000000 0.999994 19.500000
v -13.000000 0.999994 18.500000
v -14.500000 0.999994 17.000000
v -13.000000 3.999994 18.500000
v -14.500000 3.999994 17.000000
v -14.500000 3.999994 21.000000
v -16.000000 3.999994 19.500000
v 14.500000 3.999994 17.000000
v 14.500000 0.999994 17.000000
v 13.000000 3.999994 18.500000
v 13.000000 0.999994 18.500000
v 14.500000 3.999994 21.000000
v 14.500000 0.999994 21.000000
v 16.000000 3.999994 19.500000
v 16.000000 0.999994 19.500000
v 14.500000 0.999994 21.000000
v 13.000000 0.999994 18.500000
v 16.000000 0.999994 19.500000
v 14.500000 0.999994 17.000000
v 16.000000 3.999994 19.500000
v 14.500000 3.999994 17.000000
v 14.500000 3.999994 21.000000
v 13.000000 3.999994 18.500000
v -19.000000 9.999994 16.000004
v -19.000000 15.999994 16.000004
v -19.000000 10.000000 0.000004
v -19.000000 16.000000 0.000006
v -19.000000 10.000006 -15.999996
v -19.000000 16.000004 -15.999994
v 19.000000 10.000006 -15.999996
v 19.000000 16.000004 -15.999994
v 19.000000 10.000000 0.000004
v 19.000000 16.000000 0.000006
v 19.000000 9.999994 16.000004
v 19.000000 15.999994 16.000004
v 19.000000 10.000006 -15.999996
v 17.000000 10.000006 -18.999996
v 17.000000 16.000008 -18.999996
v 19.000000 16.000004 -15.999994
v 17.000000 10.000006 -18.999996
v 13.000000 10.000008 -22.999996
v 13.000000 16.000008 -22.999996
v 17.000000 16.000008 -18.999996
v -13.000000 10.000008 -22.999996
v -17.000000 10.000006 -18.999996
v -17.000000 16.000008 -18.999996
v -13.000000 16.000008 -22.999996
v -17.000000 10.000006 -18.999996
v -19.000000 10.000006 -15.999996
v -19.000000 16.000004 -15.999994
v -17.000000 16.000008 -18.999996
v -19.000000 9.999994 16.000004
v -17.000000 9.999994 19.000004
v -17.000000 15.999994 19.000004
v -19.000000 15.999994 16.000004
v -17.000000 9.999994 19.000004
v -13.000000 9.999992 23.000004
v -13.000000 15.999992 23.000004
v -17.000000 15.999994 19.000004
v -13.000000 9.999992 23.000004
v -8.000000 9.999992 26.000004
v -8.000000 15.999992 26.000004
v -13.000000 15.999992 23.000004
v 8.000000 9.999992 26.000004
v 13.000000 9.999992 23.000004
v 13.000000 15.999992 23.000004
v 8.000000 15.999992 26.000004
v 13.000000 9.999992 23.000004
v 17.000000 9.999994 19.000004
v 17.000000 15.999994 19.000004
v 13.000000 15.999992 23.000004
v 17.000000 9.999994 19.000004
v 19.000000 9.999994 16.000004
v 19.000000 15.999994 16.000004
v 17.000000 15.999994 19.000004
vt -1.000000 1.000000
vt -1.000000 0.000000
vt 0.000000 1.000000
vt 0.000000 0.000000
vt 1.000000 1.000000
vt 1.000000 0.000000
vt 2.000000 1.000000
vt 2.000000 0.000000
vt 1.000000 4.000000
vt 0.000000 4.000000
vt 1.000000 3.000000
vt 0.000000 3.000000
vt 1.000000 2.000000
vt 0.000000 2.000000
vt 1.000000 0.320312
vt 0.953125 1.000000
vt 0.375000 0.320312
vt 0.375000 1.000000
vt 0.000000 0.320312
vt 0.039062 1.000000
vt 0.960938 1.000000
vt 0.625000 0.320312
vt 0.625000 1.000000
vt 0.046875 1.000000
vt 14.000000 39.000000
vt 20.000000 39.000000
vt 20.000000 40.000000
vt 14.000000 40.000000
vn -0.707100 0.000000 -0.707100
vn -0.923900 0.000000 0.382700
vn 0.923900 -0.000000 0.382700
vn 0.000000 -1.000000 -0.000000
vn 0.707100 0.000000 -0.707100
vn 0.000000 1.000000 0.000000
vn 0.707100 -0.000000 0.707100
vn 0.923900 0.000000 -0.382700
vn -0.857500 0.000000 0.514500
vn 0.948700 0.000000 0.316200
vn 0.980600 0.000000 -0.196100
vn -0.857500 0.000000 -0.514500
vn -0.707100 0.000000 0.707100
vn 0.857500 0.000000 0.514500
vn 0.857500 0.000000 -0.514500
vn -1.000000 0.000000 0.000000
vn 1.000000 0.000000 0.000000
vn 0.832100 0.000000 -0.554700
vn -0.832100 0.000000 -0.554700
vn -0.832100 0.000000 0.554700
vn -0.514500 0.000000 0.857500
vn 0.514500 0.000000 0.857500
vn 0.832100 0.000000 0.554700
usemtl _02
s 1
f 65/50/4 66/51/4 67/52/4
f 67/52/4 66/51/4 68/53/4
f 67/52/5 68/53/5 69/54/5
f 69/54/5 68/53/5 70/55/5
f 69/54/6 70/55/6 71/56/6
f 71/56/6 70/55/6 72/57/6
f 73/58/7 74/59/7 75/60/7
f 75/60/7 74/59/7 76/61/7
f 75/60/8 76/61/8 77/62/8
f 77/62/8 76/61/8 78/63/8
f 77/62/9 78/63/9 79/54/9
f 79/54/9 78/63/9 80/52/9
f 81/50/4 82/51/4 83/52/4
f 83/52/4 82/51/4 84/53/4
f 83/52/5 84/53/5 85/54/5
f 85/54/5 84/53/5 86/55/5
f 85/54/6 86/55/6 87/56/6
f 87/56/6 86/55/6 88/57/6
f 89/58/7 90/59/7 91/60/7
f 91/60/7 90/59/7 92/61/7
f 91/60/8 92/61/8 93/62/8
f 93/62/8 92/61/8 94/63/8
f 93/62/9 94/63/9 95/54/9
f 95/54/9 94/63/9 96/52/9
f 97/50/4 98/51/4 99/52/4
f 99/52/4 98/51/4 100/53/4
f 99/52/5 100/53/5 101/54/5
f 101/54/5 100/53/5 102/55/5
f 101/54/10 102/55/10 103/56/10
f 103/56/10 102/55/10 104/57/10
f 105/58/7 106/59/7 107/60/7
f 107/60/7 106/59/7 108/61/7
f 107/60/11 108/61/11 109/62/11
f 109/62/11 108/61/11 110/63/11
f 109/62/9 110/63/9 111/54/9
f 111/54/9 110/63/9 112/52/9
f 113/50/4 114/51/4 115/52/4
f 115/52/4 114/51/4 116/53/4
f 115/52/5 116/53/5 117/54/5
f 117/54/5 116/53/5 118/55/5
f 117/54/6 118/55/6 119/56/6
f 119/56/6 118/55/6 120/57/6
f 121/58/7 122/59/7 123/60/7
f 123/60/7 122/59/7 124/61/7
f 123/60/8 124/61/8 125/62/8
f 125/62/8 124/61/8 126/63/8
f 125/62/9 126/63/9 127/54/9
f 127/54/9 126/63/9 128/52/9
f 129/50/4 130/51/4 131/52/4
f 131/52/4 130/51/4 132/53/4
f 131/52/12 132/53/12 133/54/12
f 133/54/12 132/53/12 134/55/12
f 133/54/13 134/55/13 135/56/13
f 135/56/13 134/55/13 136/57/13
f 137/58/7 138/59/7 139/60/7
f 139/60/7 138/59/7 140/61/7
f 139/60/14 140/61/14 141/62/14
f 141/62/14 140/61/14 142/63/14
f 141/62/9 142/63/9 143/54/9
f 143/54/9 142/63/9 144/52/9
f 145/50/15 146/51/15 147/52/15
f 147/52/15 146/51/15 148/53/15
f 147/52/16 148/53/16 149/54/16
f 149/54/16 148/53/16 150/55/16
f 149/54/17 150/55/17 151/56/17
f 151/56/17 150/55/17 152/57/17
f 153/58/7 154/59/7 155/60/7
f 155/60/7 154/59/7 156/61/7
f 155/60/8 156/61/8 157/62/8
f 157/62/8 156/61/8 158/63/8
f 157/62/9 158/63/9 159/54/9
f 159/54/9 158/63/9 160/52/9
f 161/50/15 162/51/15 163/52/15
f 163/52/15 162/51/15 164/53/15
f 163/52/16 164/53/16 165/54/16
f 165/54/16 164/53/16 166/55/16
f 165/54/17 166/55/17 167/56/17
f 167/56/17 166/55/17 168/57/17
f 169/58/7 170/59/7 171/60/7
f 171/60/7 170/59/7 172/61/7
f 171/60/8 172/61/8 173/62/8
f 173/62/8 172/61/8 174/63/8
f 173/62/9 174/63/9 175/54/9
f 175/54/9 174/63/9 176/52/9
f 177/50/4 178/51/4 179/52/4
f 179/52/4 178/51/4 180/53/4
f 179/52/12 180/53/12 181/54/12
f 181/54/12 180/53/12 182/55/12
f 181/54/10 182/55/10 183/56/10
f 183/56/10 182/55/10 184/57/10
f 185/58/7 186/59/7 187/60/7
f 187/60/7 186/59/7 188/61/7
f 187/60/18 188/61/18 189/62/18
f 189/62/18 188/61/18 190/63/18
f 189/62/9 190/63/9 191/54/9
f 191/54/9 190/63/9 192/52/9
f 193/64/19 194/65/19 195/66/19
f 195/66/19 194/65/19 196/67/19
f 195/66/19 196/67/19 197/68/19
f 197/68/19 196/67/19 198/69/19
f 199/64/20 200/70/20 201/71/20
f 201/71/20 200/70/20 202/72/20
f 201/71/20 202/72/20 203/68/20
f 203/68/20 202/72/20 204/73/20
f 205/68/21 206/64/21 207/54/21
f 207/54/21 208/52/21 205/68/21
f 209/68/8 210/64/8 211/54/8
f 211/54/8 212/52/8 209/68/8
f 213/68/4 214/64/4 215/54/4
f 215/54/4 216/52/4 213/68/4
f 217/68/22 218/64/22 219/54/22
f 219/54/22 220/52/22 217/68/22
f 221/68/23 222/64/23 223/54/23
f 223/54/23 224/52/23 221/68/23
f 225/68/16 226/64/16 227/54/16
f 227/54/16 228/52/16 225/68/16
f 229/74/24 230/75/24 231/76/24
f 231/76/24 232/77/24 229/74/24
f 233/68/25 234/64/25 235/54/25
f 235/54/25 236/52/25 233/68/25
f 237/68/10 238/64/10 239/54/10
f 239/54/10 240/52/10 237/68/10
f 241/68/26 242/64/26 243/54/26
f 243/54/26 244/52/26 241/68/26
o polygon1_polygon1.001
v -12.000000 16.000008 -17.999996
v -14.000000 16.000008 -17.999996
v -13.000000 16.000004 -13.999994
v -16.000000 16.000004 -14.999994
v -13.000000 16.000000 0.000006
v -16.000000 16.000000 0.000006
v -13.000000 15.999996 14.000006
v -16.000000 15.999994 15.000006
v -12.000000 15.999994 18.000004
v -14.000000 15.999994 18.000004
v 14.000000 16.000008 -17.999996
v 12.000000 16.000008 -17.999996
v 16.000000 16.000004 -14.999994
v 13.000000 16.000004 -13.999994
v 16.000000 16.000000 0.000006
v 13.000000 16.000000 0.000006
v 16.000000 15.999994 15.000006
v 13.000000 15.999996 14.000006
v 14.000000 15.999994 18.000004
v 12.000000 15.999994 18.000004
v -12.000000 16.000008 -19.999996
v -12.000000 16.000008 -17.999996
v -8.000000 16.000008 -21.999996
v -8.000000 16.000008 -18.999996
v 8.000000 16.000008 -21.999996
v 8.000000 16.000008 -18.999996
v 12.000000 16.000008 -19.999996
v 12.000000 16.000008 -17.999996
v 12.000000 15.999994 20.000004
v 12.000000 15.999994 18.000004
v 8.000000 15.999992 23.000004
v 8.000000 15.999994 19.000004
v -8.000000 15.999992 23.000004
v -8.000000 15.999994 19.000004
v -12.000000 15.999994 20.000004
v -12.000000 15.999994 18.000004
v 14.000000 16.000008 -17.999996
v 12.000000 16.000008 -19.999996
v 12.000000 16.000008 -17.999996
v -12.000000 16.000008 -19.999996
v -14.000000 16.000008 -17.999996
v -12.000000 16.000008 -17.999996
v -14.000000 15.999994 18.000004
v -12.000000 15.999994 20.000004
v -12.000000 15.999994 18.000004
v 12.000000 15.999994 20.000004
v 14.000000 15.999994 18.000004
v 12.000000 15.999994 18.000004
v -8.000000 15.999994 19.000004
v -13.000000 15.999996 14.000006
v -12.000000 15.999994 18.000004
v -13.000000 16.000004 -13.999994
v -8.000000 16.000008 -18.999996
v -12.000000 16.000008 -17.999996
v 13.000000 15.999996 14.000006
v 8.000000 15.999994 19.000004
v 12.000000 15.999994 18.000004
v 12.000000 16.000008 -17.999996
v 8.000000 16.000008 -18.999996
v 13.000000 16.000004 -13.999994
vt 0.140625 1.906250
vt 0.054688 1.906250
vt 0.140625 1.812500
vt 0.015625 1.812500
vt 0.140625 1.562500
vt 0.000000 1.562500
vt 0.140625 1.164062
vt 0.015625 1.164062
vt 0.140625 1.078125
vt 0.062500 1.078125
vt 0.945312 1.906250
vt 0.875000 1.906250
vt 0.984375 1.812500
vt 0.875000 1.812500
vt 1.000000 1.562500
vt 0.875000 1.562500
vt 0.976562 1.164062
vt 0.875000 1.164062
vt 0.968750 1.078125
vt 0.875000 1.078125
vt 0.140625 1.968750
vt 0.257812 2.000000
vt 0.257812 1.906250
vt 0.757812 2.000000
vt 0.757812 1.906250
vt 0.875000 1.960938
vt 0.875000 1.023438
vt 0.757812 1.000000
vt 0.757812 1.078125
vt 0.257812 1.000000
vt 0.257812 1.078125
vt 0.140625 1.039062
vn 0.000000 1.000000 0.000000
usemtl _01
s 1
f 245/78/27 246/79/27 247/80/27
f 247/80/27 246/79/27 248/81/27
f 247/80/27 248/81/27 249/82/27
f 249/82/27 248/81/27 250/83/27
f 249/82/27 250/83/27 251/84/27
f 251/84/27 250/83/27 252/85/27
f 251/84/27 252/85/27 253/86/27
f 253/86/27 252/85/27 254/87/27
f 255/88/27 256/89/27 257/90/27
f 257/90/27 256/89/27 258/91/27
f 257/90/27 258/91/27 259/92/27
f 259/92/27 258/91/27 260/93/27
f 259/92/27 260/93/27 261/94/27
f 261/94/27 260/93/27 262/95/27
f 261/94/27 262/95/27 263/96/27
f 263/96/27 262/95/27 264/97/27
f 265/98/27 266/78/27 267/99/27
f 267/99/27 266/78/27 268/100/27
f 267/99/27 268/100/27 269/101/27
f 269/101/27 268/100/27 270/102/27
f 269/101/27 270/102/27 271/103/27
f 271/103/27 270/102/27 272/89/27
f 273/104/27 274/97/27 275/105/27
f 275/105/27 274/97/27 276/106/27
f 275/105/27 276/106/27 277/107/27
f 277/107/27 276/106/27 278/108/27
f 277/107/27 278/108/27 279/109/27
f 279/109/27 278/108/27 280/86/27
f 281/88/27 282/103/27 283/89/27
f 284/98/27 285/79/27 286/78/27
f 287/87/27 288/109/27 289/86/27
f 290/104/27 291/96/27 292/97/27
f 293/108/27 294/84/27 295/86/27
f 296/80/27 297/100/27 298/78/27
f 299/95/27 300/106/27 301/97/27
f 302/89/27 303/102/27 304/91/27
o polygon2
v -8.000000 15.999994 19.000004
v 8.000000 15.999994 19.000004
v -8.000000 15.999996 14.000006
v 8.000000 15.999996 14.000006
v -8.000000 16.000000 0.000006
v 8.000000 16.000000 0.000006
v -8.000000 16.000004 -13.999994
v 8.000000 16.000004 -13.999994
v -8.000000 16.000008 -18.999996
v 8.000000 16.000008 -18.999996
v -8.000000 16.000004 -13.999994
v -13.000000 16.000004 -13.999994
v -8.000000 16.000000 0.000006
v -13.000000 16.000000 0.000006
v -8.000000 15.999996 14.000006
v -13.000000 15.999996 14.000006
v 8.000000 15.999996 14.000006
v 13.000000 15.999996 14.000006
v 8.000000 16.000000 0.000006
v 13.000000 16.000000 0.000006
v 8.000000 16.000004 -13.999994
v 13.000000 16.000004 -13.999994
v 13.000000 15.999996 14.000006
v 8.000000 15.999996 14.000006
v 8.000000 15.999994 19.000004
v 13.000000 16.000004 -13.999994
v 8.000000 16.000008 -18.999996
v 8.000000 16.000004 -13.999994
v -8.000000 15.999994 19.000004
v -8.000000 15.999996 14.000006
v -13.000000 15.999996 14.000006
v -8.000000 16.000004 -13.999994
v -8.000000 16.000008 -18.999996
v -13.000000 16.000004 -13.999994
vt 31.191406 31.552734
vt 31.808594 31.552734
vt 31.191406 31.683594
vt 31.808594 31.683594
vt 31.191406 32.052734
vt 31.808594 32.052734
vt 31.191406 32.421875
vt 31.808594 32.421875
vt 31.191406 32.552734
vt 31.808594 32.552734
vt 31.000000 32.421875
vt 31.000000 32.052734
vt 31.000000 31.683594
vt 32.000000 31.683594
vt 32.000000 32.052734
vt 32.000000 32.421875
vn 0.000000 1.000000 0.000000
usemtl _03
s 1
f 305/110/28 306/111/28 307/112/28
f 307/112/28 306/111/28 308/113/28
f 307/112/28 308/113/28 309/114/28
f 309/114/28 308/113/28 310/115/28
f 309/114/28 310/115/28 311/116/28
f 311/116/28 310/115/28 312/117/28
f 311/116/28 312/117/28 313/118/28
f 313/118/28 312/117/28 314/119/28
f 315/116/28 316/120/28 317/114/28
f 317/114/28 316/120/28 318/121/28
f 317/114/28 318/121/28 319/112/28
f 319/112/28 318/121/28 320/122/28
f 321/113/28 322/123/28 323/115/28
f 323/115/28 322/123/28 324/124/28
f 323/115/28 324/124/28 325/117/28
f 325/117/28 324/124/28 326/125/28
f 327/123/28 328/113/28 329/111/28
f 330/125/28 331/119/28 332/117/28
f 333/110/28 334/112/28 335/122/28
f 336/116/28 337/118/28 338/120/28
