# Blender v2.83.1 OBJ File: ''
# www.blender.org
mtllib Altavoz.mtl
o AltavozMesh
v -0.120483 0.000000 0.142357
v 0.120483 0.000000 0.142357
v 0.120483 0.000000 -0.142357
v -0.120483 0.000000 -0.142357
v -0.120483 0.572655 0.142357
v -0.120483 0.572655 -0.142357
v 0.120483 0.572655 -0.142357
v 0.120483 0.572655 0.142357
v -0.120483 0.000000 0.142357
v -0.120483 0.572655 0.142357
v 0.120483 0.572655 0.142357
v 0.120483 0.000000 0.142357
v 0.120483 0.000000 0.142357
v 0.120483 0.572655 0.142357
v 0.120483 0.572655 -0.142357
v 0.120483 0.000000 -0.142357
v 0.120483 0.000000 -0.142357
v 0.120483 0.572655 -0.142357
v -0.120483 0.572655 -0.142357
v -0.120483 0.000000 -0.142357
v -0.120483 0.000000 -0.142357
v -0.120483 0.572655 -0.142357
v -0.120483 0.572655 0.142357
v -0.120483 0.000000 0.142357
vt 0.209288 0.306504
vt 0.208597 0.115982
vt 0.369844 0.115396
vt 0.370535 0.305919
vt 0.210677 0.689707
vt 0.371924 0.689123
vt 0.372614 0.879645
vt 0.211367 0.880230
vt 0.577336 0.014617
vt 0.986348 0.013133
vt 0.989876 0.985150
vt 0.580864 0.986634
vt 0.210677 0.689707
vt 0.020154 0.690398
vt 0.018765 0.307194
vt 0.209288 0.306504
vt 0.371924 0.689123
vt 0.210677 0.689707
vt 0.209288 0.306504
vt 0.370535 0.305919
vt 0.562447 0.688432
vt 0.371924 0.689123
vt 0.370535 0.305919
vt 0.561057 0.305228
vn 0.0000 -1.0000 0.0000
vn 0.0000 1.0000 0.0000
vn 0.0000 0.0000 1.0000
vn 1.0000 0.0000 0.0000
vn 0.0000 0.0000 -1.0000
vn -1.0000 0.0000 0.0000
usemtl Altavoz
s 1
f 3/1/1 2/2/1 1/3/1
f 4/4/1 3/1/1 1/3/1
f 7/5/2 6/6/2 5/7/2
f 8/8/2 7/5/2 5/7/2
f 11/9/3 10/10/3 9/11/3
f 12/12/3 11/9/3 9/11/3
f 15/13/4 14/14/4 13/15/4
f 16/16/4 15/13/4 13/15/4
f 19/17/5 18/18/5 17/19/5
f 20/20/5 19/17/5 17/19/5
f 23/21/6 22/22/6 21/23/6
f 24/24/6 23/21/6 21/23/6
