# Blender v2.77 (sub 0) OBJ File: ''
# www.blender.org
mtllib GeneralStore_Bottle_06.mtl
o Model_GeneralStore_Bottle_06
v 0.045451 0.010174 0.031042
v 0.045451 0.170744 -0.031042
v 0.045451 0.010174 -0.031042
v 0.045451 0.170744 0.031042
v 0.042800 0.010174 0.034320
v 0.038487 0.190486 0.027257
v 0.038487 0.190486 -0.027257
v 0.036024 0.190486 0.030457
v 0.042800 0.170744 0.034320
v -0.042801 0.010174 0.034320
v -0.036024 0.190486 0.030457
v -0.042801 0.170744 0.034320
v -0.045451 0.010174 0.031042
v -0.038487 0.190486 0.027257
v -0.045451 0.170744 0.031042
v -0.045451 0.010174 -0.031042
v -0.038487 0.190486 -0.027257
v -0.045451 0.170744 -0.031042
v -0.042801 0.010174 -0.034320
v -0.036024 0.190486 -0.030457
v -0.042801 0.170744 -0.034320
v 0.042800 0.010174 -0.034320
v 0.036024 0.190486 -0.030457
v 0.042800 0.170744 -0.034320
v 0.045451 0.010174 -0.031042
v 0.038487 0.190486 -0.027257
v 0.045451 0.170744 -0.031042
v 0.021055 0.219414 -0.013988
v 0.020668 0.208136 -0.016505
v 0.020668 0.208136 0.015676
v 0.021055 0.219414 0.013159
v 0.017277 0.208136 0.021935
v 0.017543 0.219414 0.018866
v -0.017873 0.219414 0.018866
v -0.017607 0.208136 0.021935
v -0.020999 0.208136 0.015676
v -0.021385 0.219414 0.013159
v -0.020999 0.208136 -0.016505
v -0.021385 0.219414 -0.013988
v -0.017607 0.208136 -0.022764
v -0.017873 0.219414 -0.019695
v 0.017277 0.208136 -0.022764
v 0.017543 0.219414 -0.019695
v 0.020668 0.208136 -0.016505
v 0.021055 0.219414 -0.013988
v 0.025882 0.219468 0.016362
v 0.025882 0.228774 -0.017191
v 0.025882 0.219468 -0.017191
v 0.025882 0.228774 0.016362
v 0.011354 0.219468 0.026631
v 0.011354 0.228774 0.026631
v -0.011685 0.219468 0.026631
v -0.011685 0.228774 0.026631
v -0.026213 0.219468 0.016362
v -0.026213 0.228774 0.016362
v -0.026213 0.219468 -0.017191
v -0.026213 0.228774 -0.017191
v -0.011685 0.219468 -0.027460
v -0.011685 0.228774 -0.027460
v 0.011354 0.219468 -0.027460
v 0.011354 0.228774 -0.027460
v 0.025882 0.219468 -0.017191
v 0.025882 0.228774 -0.017191
v 0.045451 0.010174 0.031042
v -0.042801 0.010174 0.034320
v 0.042800 0.010174 0.034320
v -0.045451 0.010174 0.031042
v -0.045451 0.010174 -0.031042
v 0.045451 0.010174 -0.031042
v 0.042800 0.010174 -0.034320
v -0.042801 0.010174 -0.034320
v 0.038487 0.190486 -0.027257
v 0.038487 0.190486 0.027257
v 0.020668 0.208136 0.015676
v 0.036024 0.190486 0.030457
v 0.020668 0.208136 -0.016505
v 0.017277 0.208136 0.021935
v -0.036024 0.190486 0.030457
v -0.017607 0.208136 0.021935
v 0.017277 0.208136 -0.022764
v 0.036024 0.190486 -0.030457
v -0.036024 0.190486 -0.030457
v -0.017607 0.208136 -0.022764
v -0.038487 0.190486 -0.027257
v -0.020999 0.208136 -0.016505
v -0.038487 0.190486 0.027257
v -0.020999 0.208136 0.015676
v -0.017873 0.219414 0.018866
v -0.011685 0.219468 0.026631
v 0.011354 0.219468 0.026631
v 0.017543 0.219414 0.018866
v -0.021385 0.219414 0.013159
v 0.025882 0.219468 0.016362
v -0.026213 0.219468 0.016362
v 0.021055 0.219414 0.013159
v -0.021385 0.219414 -0.013988
v 0.025882 0.219468 -0.017191
v -0.026213 0.219468 -0.017191
v 0.021055 0.219414 -0.013988
v -0.017873 0.219414 -0.019695
v 0.011354 0.219468 -0.027460
v -0.011685 0.219468 -0.027460
v 0.017543 0.219414 -0.019695
v 0.011354 0.228774 0.026631
v -0.011685 0.228774 0.026631
v -0.011306 0.231218 0.025184
v 0.010976 0.231218 0.025184
v 0.025882 0.228774 0.016362
v 0.024273 0.231218 0.016362
v 0.025882 0.228774 -0.017191
v -0.024603 0.231218 0.016362
v -0.026213 0.228774 0.016362
v -0.024603 0.231218 -0.017191
v -0.026213 0.228774 -0.017191
v 0.024273 0.231218 -0.017191
v 0.011354 0.228774 -0.027460
v 0.010976 0.231218 -0.026013
v -0.011685 0.228774 -0.027460
v -0.011306 0.231218 -0.026013
vt 0.3868 0.0530
vt 0.3868 0.2123
vt 0.3225 0.0530
vt 0.3225 0.2123
vt 0.3190 0.0530
vt 0.3218 0.2319
vt 0.3876 0.2319
vt 0.3179 0.2319
vt 0.3190 0.2123
vt 0.2530 0.0530
vt 0.2541 0.2319
vt 0.2530 0.2123
vt 0.2495 0.0530
vt 0.2503 0.2319
vt 0.2495 0.2123
vt 0.1852 0.0530
vt 0.1844 0.2319
vt 0.1852 0.2123
vt 0.1817 0.0530
vt 0.1805 0.2319
vt 0.1817 0.2123
vt 0.1156 0.0530
vt 0.1168 0.2319
vt 0.1156 0.2123
vt 0.1121 0.0530
vt 0.1129 0.2319
vt 0.1121 0.2123
vt 0.2454 0.2454
vt 0.2788 0.2454
vt 0.2766 0.2571
vt 0.2477 0.2571
vt 0.2388 0.2454
vt 0.2409 0.2571
vt 0.2011 0.2571
vt 0.2032 0.2454
vt 0.1966 0.2454
vt 0.1943 0.2571
vt 0.1632 0.2454
vt 0.1654 0.2571
vt 0.1566 0.2454
vt 0.1587 0.2571
vt 0.1210 0.2454
vt 0.1188 0.2571
vt 0.1144 0.2454
vt 0.1121 0.2571
vt 0.2970 0.2330
vt 0.2970 0.2438
vt 0.2644 0.2330
vt 0.2644 0.2438
vt 0.2467 0.2330
vt 0.2467 0.2438
vt 0.2222 0.2330
vt 0.2222 0.2438
vt 0.2046 0.2330
vt 0.2046 0.2438
vt 0.1719 0.2330
vt 0.1719 0.2438
vt 0.1543 0.2330
vt 0.1543 0.2438
vt 0.1298 0.2330
vt 0.1298 0.2438
vt 0.1121 0.2330
vt 0.1121 0.2438
vt 0.2042 0.2579
vt 0.1149 0.2579
vt 0.2069 0.2624
vt 0.1121 0.2624
vt 0.1121 0.3481
vt 0.2069 0.3481
vt 0.2042 0.3527
vt 0.1149 0.3527
vt 0.2715 0.2893
vt 0.2907 0.2706
vt 0.2907 0.3459
vt 0.2881 0.2662
vt 0.2715 0.3282
vt 0.2678 0.2817
vt 0.2103 0.2662
vt 0.2302 0.2817
vt 0.2678 0.3358
vt 0.2881 0.3503
vt 0.2103 0.3503
vt 0.2302 0.3358
vt 0.2076 0.3459
vt 0.2265 0.3282
vt 0.2076 0.2706
vt 0.2265 0.2893
vt 0.3819 0.2814
vt 0.3599 0.2814
vt 0.3540 0.2912
vt 0.3878 0.2912
vt 0.3506 0.2984
vt 0.3957 0.2944
vt 0.3460 0.2944
vt 0.3911 0.2984
vt 0.3506 0.3327
vt 0.3957 0.3368
vt 0.3460 0.3368
vt 0.3911 0.3327
vt 0.3540 0.3399
vt 0.3819 0.3498
vt 0.3599 0.3498
vt 0.3878 0.3399
vt 0.3071 0.2792
vt 0.3067 0.2772
vt 0.3300 0.2772
vt 0.3296 0.2792
vt 0.3447 0.2910
vt 0.3431 0.2910
vt 0.3447 0.3359
vt 0.2937 0.2910
vt 0.2920 0.2910
vt 0.2937 0.3359
vt 0.2920 0.3359
vt 0.3431 0.3359
vt 0.3300 0.3497
vt 0.3296 0.3477
vt 0.3067 0.3497
vt 0.3071 0.3477
vn 0.7251 -0.6393 -0.2560
vn 0.9196 0.2159 -0.3281
vn 0.7251 -0.6393 0.2560
vn 0.9196 0.2160 0.3281
vn 0.3380 -0.6217 0.7066
vn 0.7432 0.6244 0.2402
vn 0.7451 0.6224 -0.2396
vn 0.3647 0.5622 0.7423
vn 0.4503 0.1884 0.8728
vn -0.3379 -0.6217 0.7066
vn -0.3652 0.5602 0.7435
vn -0.4503 0.1884 0.8728
vn -0.7251 -0.6393 0.2560
vn -0.7450 0.6220 0.2410
vn -0.9196 0.2159 0.3281
vn -0.7251 -0.6393 -0.2561
vn -0.7470 0.6199 -0.2404
vn -0.9196 0.2160 -0.3281
vn -0.3378 -0.6217 -0.7067
vn -0.3693 0.5548 -0.7455
vn -0.4503 0.1884 -0.8728
vn 0.3378 -0.6217 -0.7067
vn 0.3687 0.5569 -0.7443
vn 0.4503 0.1884 -0.8728
vn 0.7452 0.6224 -0.2396
vn 0.8286 0.5105 0.2298
vn 0.8291 0.5087 -0.2322
vn 0.6335 -0.7609 -0.1406
vn 0.6335 -0.7609 0.1406
vn 0.3078 0.5330 0.7881
vn 0.3757 -0.7397 0.5584
vn -0.3757 -0.7397 0.5584
vn -0.3094 0.5323 0.7880
vn -0.8310 0.5065 0.2299
vn -0.6335 -0.7609 0.1406
vn -0.8315 0.5047 -0.2323
vn -0.6335 -0.7609 -0.1406
vn -0.3095 0.5134 -0.8004
vn -0.3756 -0.7397 -0.5583
vn 0.3079 0.5142 -0.8005
vn 0.3757 -0.7397 -0.5583
vn 0.6335 -0.7609 -0.1405
vn 0.7010 -0.6140 -0.3628
vn 0.8576 0.3091 -0.4111
vn 0.7010 -0.6140 0.3628
vn 0.8576 0.3090 0.4111
vn 0.2317 -0.6429 0.7301
vn 0.2897 0.2815 0.9148
vn -0.2317 -0.6429 0.7301
vn -0.2897 0.2814 0.9148
vn -0.7010 -0.6140 0.3629
vn -0.8576 0.3090 0.4111
vn -0.7010 -0.6140 -0.3629
vn -0.8576 0.3090 -0.4111
vn -0.2318 -0.6429 -0.7301
vn -0.2897 0.2815 -0.9148
vn 0.2318 -0.6429 -0.7300
vn 0.2898 0.2814 -0.9148
vn 0.8576 0.3090 -0.4111
vn 0.3378 -0.6217 0.7067
vn -0.3378 -0.6217 0.7067
vn 0.7251 -0.6393 0.2561
vn -0.7251 -0.6393 0.2561
vn 0.7251 -0.6393 -0.2561
vn 0.3647 0.5621 0.7423
vn 0.8290 0.5087 -0.2322
vn 0.3078 0.5331 0.7881
vn -0.3692 0.5548 -0.7456
vn -0.8314 0.5047 -0.2323
vn -0.2318 -0.6429 0.7300
vn -0.3756 -0.7397 0.5583
vn 0.3756 -0.7397 0.5584
vn -0.7010 -0.6140 0.3628
vn -0.7010 -0.6140 -0.3628
vn -0.3757 -0.7397 -0.5583
vn 0.2318 -0.6429 -0.7301
vn -0.2317 -0.6429 -0.7301
vn 0.3756 -0.7397 -0.5584
vn -0.1641 0.8489 0.5025
vn 0.2897 0.2814 0.9148
vn 0.1641 0.8489 0.5025
vn 0.4492 0.8414 0.3005
vn -0.4492 0.8414 0.3005
vn -0.4492 0.8414 -0.3005
vn 0.4492 0.8414 -0.3005
vn 0.2897 0.2814 -0.9148
vn 0.1641 0.8489 -0.5025
vn -0.1641 0.8489 -0.5025
usemtl Mat_GeneralStore_Bottles
s 1
f 3/1/1 2/2/2 1/3/3
f 2/2/2 4/4/4 1/3/3
f 1/3/3 4/4/4 5/5/5
f 4/4/4 2/2/2 6/6/6
f 2/2/2 7/7/7 6/6/6
f 4/4/4 6/6/6 8/8/8
f 4/4/4 9/9/9 5/5/5
f 9/9/9 4/4/4 8/8/8
f 5/5/5 9/9/9 10/10/10
f 9/9/9 8/8/8 11/11/11
f 9/9/9 12/12/12 10/10/10
f 12/12/12 9/9/9 11/11/11
f 13/13/13 10/10/10 12/12/12
f 12/12/12 11/11/11 14/14/14
f 15/15/15 13/13/13 12/12/12
f 15/15/15 12/12/12 14/14/14
f 13/13/13 15/15/15 16/16/16
f 15/15/15 14/14/14 17/17/17
f 15/15/15 18/18/18 16/16/16
f 18/18/18 15/15/15 17/17/17
f 16/16/16 18/18/18 19/19/19
f 18/18/18 17/17/17 20/20/20
f 18/18/18 21/21/21 19/19/19
f 21/21/21 18/18/18 20/20/20
f 19/19/19 21/21/21 22/22/22
f 21/21/21 20/20/20 23/23/23
f 21/21/21 24/24/24 22/22/22
f 24/24/24 21/21/21 23/23/23
f 22/22/22 24/24/24 25/25/1
f 24/24/24 23/23/23 26/26/25
f 24/24/24 27/27/2 25/25/1
f 27/27/2 24/24/24 26/26/25
f 30/28/26 29/29/27 28/30/28
f 31/31/29 30/28/26 28/30/28
f 30/28/26 31/31/29 32/32/30
f 31/31/29 33/33/31 32/32/30
f 32/32/30 33/33/31 34/34/32
f 35/35/33 32/32/30 34/34/32
f 35/35/33 34/34/32 36/36/34
f 34/34/32 37/37/35 36/36/34
f 38/38/36 36/36/34 37/37/35
f 39/39/37 38/38/36 37/37/35
f 38/38/36 39/39/37 40/40/38
f 39/39/37 41/41/39 40/40/38
f 42/42/40 40/40/38 41/41/39
f 43/43/41 42/42/40 41/41/39
f 42/42/40 43/43/41 44/44/27
f 43/43/41 45/45/42 44/44/27
f 48/46/43 47/47/44 46/48/45
f 47/47/44 49/49/46 46/48/45
f 46/48/45 49/49/46 50/50/47
f 49/49/46 51/51/48 50/50/47
f 50/50/47 51/51/48 52/52/49
f 51/51/48 53/53/50 52/52/49
f 52/52/49 53/53/50 54/54/51
f 53/53/50 55/55/52 54/54/51
f 54/54/51 55/55/52 56/56/53
f 55/55/52 57/57/54 56/56/53
f 56/56/53 57/57/54 58/58/55
f 57/57/54 59/59/56 58/58/55
f 58/58/55 59/59/56 60/60/57
f 59/59/56 61/61/58 60/60/57
f 60/60/57 61/61/58 62/62/43
f 61/61/58 63/63/59 62/62/43
f 66/64/60 65/65/61 64/66/62
f 65/65/61 67/67/63 64/66/62
f 67/67/63 68/68/16 64/66/62
f 68/68/16 69/69/64 64/66/62
f 70/70/22 69/69/64 68/68/16
f 71/71/19 70/70/22 68/68/16
f 74/72/26 73/73/6 72/74/7
f 73/73/6 74/72/26 75/75/65
f 76/76/66 74/72/26 72/74/7
f 74/72/26 77/77/67 75/75/65
f 75/75/65 77/77/67 78/78/11
f 77/77/67 79/79/33 78/78/11
f 80/80/40 76/76/66 72/74/7
f 81/81/23 80/80/40 72/74/7
f 80/80/40 81/81/23 82/82/68
f 83/83/38 80/80/40 82/82/68
f 83/83/38 82/82/68 84/84/17
f 85/85/69 83/83/38 84/84/17
f 78/78/11 79/79/33 86/86/14
f 85/85/69 84/84/17 86/86/14
f 79/79/33 87/87/34 86/86/14
f 87/87/34 85/85/69 86/86/14
f 90/88/47 89/89/70 88/90/71
f 91/91/72 90/88/47 88/90/71
f 88/90/71 89/89/70 92/92/35
f 93/93/45 90/88/47 91/91/72
f 89/89/70 94/94/73 92/92/35
f 95/95/29 93/93/45 91/91/72
f 92/92/35 94/94/73 96/96/37
f 97/97/43 93/93/45 95/95/29
f 94/94/73 98/98/74 96/96/37
f 99/99/28 97/97/43 95/95/29
f 96/96/37 98/98/74 100/100/75
f 101/101/76 97/97/43 99/99/28
f 98/98/74 102/102/77 100/100/75
f 103/103/78 101/101/76 99/99/28
f 100/100/75 102/102/77 103/103/78
f 102/102/77 101/101/76 103/103/78
f 106/104/79 105/105/50 104/106/80
f 107/107/81 106/104/79 104/106/80
f 107/107/81 104/106/80 108/108/46
f 109/109/82 107/107/81 108/108/46
f 107/107/81 109/109/82 106/104/79
f 109/109/82 108/108/46 110/110/59
f 106/104/79 111/111/83 105/105/50
f 109/109/82 111/111/83 106/104/79
f 111/111/83 112/112/52 105/105/50
f 111/111/83 113/113/84 112/112/52
f 113/113/84 111/111/83 109/109/82
f 113/113/84 114/114/54 112/112/52
f 115/115/85 109/109/82 110/110/59
f 115/115/85 113/113/84 109/109/82
f 115/115/85 110/110/59 116/116/86
f 117/117/87 115/115/85 116/116/86
f 113/113/84 115/115/85 117/117/87
f 117/117/87 116/116/86 118/118/56
f 119/119/88 118/118/56 114/114/54
f 113/113/84 119/119/88 114/114/54
f 119/119/88 113/113/84 117/117/87
f 119/119/88 117/117/87 118/118/56
