# Blender v2.77 (sub 0) OBJ File: ''
# www.blender.org
mtllib String.mtl
o String_Mesh
v 0.094000 0.001100 0.000000
v 0.100000 0.001100 0.000000
v 0.100000 -0.000000 0.000900
v 0.094000 -0.000000 0.000900
v 0.088000 0.001100 0.000000
v 0.088000 -0.000000 0.000900
v 0.081500 -0.000000 0.000900
v 0.081500 0.001100 0.000000
v 0.075000 -0.000000 0.000900
v 0.075000 0.001100 0.000000
v 0.069000 0.001100 0.000000
v 0.069000 -0.000000 0.000900
v 0.063000 0.001100 0.000000
v 0.063000 -0.000000 0.000900
v 0.056500 -0.000000 0.000900
v 0.056500 0.001100 0.000000
v 0.050000 -0.000000 0.000900
v 0.050000 0.001100 0.000000
v 0.043800 0.001100 0.000000
v 0.043800 -0.000000 0.000900
v 0.037700 0.001100 0.000000
v 0.037700 -0.000000 0.000900
v 0.031300 -0.000000 0.000900
v 0.031300 0.001100 0.000000
v 0.025000 -0.000000 0.000900
v 0.025000 0.001100 0.000000
v 0.019000 0.001100 0.000000
v 0.019000 -0.000000 0.000900
v 0.013000 0.001100 0.000000
v 0.013000 -0.000000 0.000900
v 0.006500 -0.000000 0.000900
v 0.006500 0.001100 0.000000
v 0.000000 -0.000000 0.000900
v -0.000000 0.001100 0.000000
v 0.006500 0.001100 0.000000
v -0.000000 0.001100 0.000000
v 0.000000 0.000000 -0.000900
v 0.006500 0.000000 -0.000900
v 0.013000 0.001100 0.000000
v 0.013000 0.000000 -0.000900
v 0.019000 0.000000 -0.000900
v 0.019000 0.001100 0.000000
v 0.025000 0.000000 -0.000900
v 0.025000 0.001100 0.000000
v 0.031300 0.001100 0.000000
v 0.031300 0.000000 -0.000900
v 0.037700 0.001100 0.000000
v 0.037700 0.000000 -0.000900
v 0.043800 0.000000 -0.000900
v 0.043800 0.001100 0.000000
v 0.050000 0.000000 -0.000900
v 0.050000 0.001100 0.000000
v 0.056500 0.001100 0.000000
v 0.056500 0.000000 -0.000900
v 0.063000 0.001100 0.000000
v 0.063000 0.000000 -0.000900
v 0.069000 0.000000 -0.000900
v 0.069000 0.001100 0.000000
v 0.075000 0.000000 -0.000900
v 0.075000 0.001100 0.000000
v 0.081500 0.001100 0.000000
v 0.081500 0.000000 -0.000900
v 0.088000 0.001100 0.000000
v 0.088000 0.000000 -0.000900
v 0.094000 0.000000 -0.000900
v 0.094000 0.001100 0.000000
v 0.100000 0.000000 -0.000900
v 0.100000 0.001100 0.000000
vt 0.9999 0.0001
vt 0.9999 0.0001
vt 0.9374 0.0001
vt 0.9374 0.0001
vt 0.8749 0.0001
vt 0.8749 0.0001
vt 0.8124 0.0001
vt 0.8124 0.0001
vt 0.7500 0.0001
vt 0.7500 0.0001
vt 0.6875 0.0001
vt 0.6875 0.0001
vt 0.6250 0.0001
vt 0.6250 0.0001
vt 0.5625 0.0001
vt 0.5625 0.0001
vt 0.5000 0.0001
vt 0.5000 0.0001
vt 0.4375 0.0001
vt 0.4375 0.0001
vt 0.3750 0.0001
vt 0.3750 0.0001
vt 0.3125 0.0001
vt 0.3125 0.0001
vt 0.2500 0.0001
vt 0.2500 0.0001
vt 0.1876 0.0001
vt 0.1876 0.0001
vt 0.1251 0.0001
vt 0.1251 0.0001
vt 0.0626 0.0001
vt 0.0626 0.0001
vt 0.0001 0.0001
vt 0.0001 0.0001
vt 0.0001 0.2001
vt 0.0001 0.2001
vt 0.0626 0.2001
vt 0.0626 0.2001
vt 0.1251 0.2001
vt 0.1251 0.2001
vt 0.1876 0.2001
vt 0.1876 0.2001
vt 0.2500 0.2001
vt 0.2500 0.2001
vt 0.3125 0.2001
vt 0.3125 0.2001
vt 0.3750 0.2001
vt 0.3750 0.2001
vt 0.4375 0.2001
vt 0.4375 0.2001
vt 0.5000 0.2001
vt 0.5000 0.2001
vt 0.5625 0.2001
vt 0.5625 0.2001
vt 0.6250 0.2001
vt 0.6250 0.2001
vt 0.6875 0.2001
vt 0.6875 0.2001
vt 0.7500 0.2001
vt 0.7500 0.2001
vt 0.8124 0.2001
vt 0.8124 0.2001
vt 0.8749 0.2001
vt 0.8749 0.2001
vt 0.9374 0.2001
vt 0.9374 0.2001
vt 0.9999 0.2001
vt 0.9999 0.2001
vn -0.0000 0.6332 0.7740
vn -0.0000 1.0000 -0.0000
vn -0.0000 0.6332 -0.7740
vn -0.0004 1.0000 0.0000
usemtl String
s 1
f 3/1/1 2/2/2 1/3/2
f 4/4/1 3/1/1 1/3/2
f 4/4/1 1/3/2 5/5/2
f 6/6/1 4/4/1 5/5/2
f 7/7/1 6/6/1 5/5/2
f 8/8/2 7/7/1 5/5/2
f 9/9/1 7/7/1 8/8/2
f 10/10/2 9/9/1 8/8/2
f 9/9/1 10/10/2 11/11/2
f 12/12/1 9/9/1 11/11/2
f 12/12/1 11/11/2 13/13/2
f 14/14/1 12/12/1 13/13/2
f 15/15/1 14/14/1 13/13/2
f 16/16/2 15/15/1 13/13/2
f 17/17/1 15/15/1 16/16/2
f 18/18/2 17/17/1 16/16/2
f 17/17/1 18/18/2 19/19/2
f 20/20/1 17/17/1 19/19/2
f 20/20/1 19/19/2 21/21/2
f 22/22/1 20/20/1 21/21/2
f 23/23/1 22/22/1 21/21/2
f 24/24/2 23/23/1 21/21/2
f 25/25/1 23/23/1 24/24/2
f 26/26/2 25/25/1 24/24/2
f 25/25/1 26/26/2 27/27/2
f 28/28/1 25/25/1 27/27/2
f 28/28/1 27/27/2 29/29/2
f 30/30/1 28/28/1 29/29/2
f 31/31/1 30/30/1 29/29/2
f 32/32/2 31/31/1 29/29/2
f 33/33/1 31/31/1 32/32/2
f 34/34/2 33/33/1 32/32/2
f 37/35/3 36/36/2 35/37/2
f 38/38/3 37/35/3 35/37/2
f 38/38/3 35/37/2 39/39/2
f 40/40/3 38/38/3 39/39/2
f 41/41/3 40/40/3 39/39/2
f 42/42/2 41/41/3 39/39/2
f 43/43/3 41/41/3 42/42/2
f 44/44/2 43/43/3 42/42/2
f 43/43/3 44/44/2 45/45/2
f 46/46/3 43/43/3 45/45/2
f 46/46/3 45/45/2 47/47/2
f 48/48/3 46/46/3 47/47/2
f 49/49/3 48/48/3 47/47/2
f 50/50/2 49/49/3 47/47/2
f 51/51/3 49/49/3 50/50/2
f 52/52/2 51/51/3 50/50/2
f 51/51/3 52/52/2 53/53/2
f 54/54/3 51/51/3 53/53/2
f 54/54/3 53/53/2 55/55/2
f 56/56/3 54/54/3 55/55/2
f 57/57/3 56/56/3 55/55/2
f 58/58/2 57/57/3 55/55/2
f 59/59/3 57/57/3 58/58/2
f 60/60/2 59/59/3 58/58/2
f 59/59/3 60/60/2 61/61/2
f 62/62/3 59/59/3 61/61/2
f 62/62/3 61/61/2 63/63/2
f 64/64/3 62/62/3 63/63/2
f 65/65/3 64/64/3 63/63/2
f 66/66/2 65/65/3 63/63/2
f 67/67/3 65/65/3 66/66/2
f 68/68/4 67/67/3 66/66/2
